<?xml version="1.0" encoding="UTF-8"?><svg id="Layer_1" xmlns="http://www.w3.org/2000/svg" viewBox="0 0 32 32"><defs><style>.cls-1{fill:#bab185;}.cls-2{fill:#505c49;}</style></defs><path class="cls-2" d="m12.08,9.04c-.82.08-1.49.25-2.02.51-.53.26-.96.57-1.3.92-.34.35-.6.73-.8,1.13s-.37.78-.52,1.12c-.09.24-.18.47-.28.67s-.2.38-.32.52c-.11.14-.25.25-.4.34-.15.08-.34.12-.56.11-.06-.01-.12-.02-.15-.03-.04,0-.09-.04-.15-.11-.53-.23-.74-.79-.63-1.67.05-.42.14-.9.28-1.43.13-.53.32-1.1.55-1.72.26-.69.55-1.42.88-2.18.33-.76.68-1.52,1.06-2.29s.75-1.51,1.13-2.24c.38-.73.76-1.4,1.13-2.02h.13l5.74,13.56h-1.61l-2.17-5.21Zm-2.88-6.7c-.29.56-.59,1.15-.89,1.75-.3.6-.6,1.21-.88,1.82-.29.61-.56,1.21-.82,1.81-.26.6-.49,1.18-.69,1.73-.23.61-.41,1.18-.55,1.71-.13.53-.23.99-.28,1.4-.03.4,0,.73.09,1.01.08.28.24.45.47.53.06.03.11.04.14.05s.07.02.13.05c.38.03.67-.11.86-.39.19-.29.37-.66.52-1.1.15-.36.33-.74.54-1.15.2-.41.48-.8.82-1.16s.78-.68,1.32-.95,1.22-.44,2.05-.52l-2.82-6.57Z"/><path class="cls-2" d="m19.1,31.33h-1.46v-13.56h1.46v4.53c0,.65.13,1.12.39,1.4.26.28.6.46,1,.54.4.08.85.09,1.34.05.49-.04.97-.06,1.42-.06.45,0,.87.08,1.24.22.37.14.64.44.81.88v-7.57h1.5v13.56h-1.5v-4.96c0-.49-.07-.86-.22-1.13-.15-.27-.35-.47-.6-.59s-.55-.2-.87-.23-.67-.03-1.02-.01c-.35.02-.71.04-1.08.05-.37.01-.71,0-1.02-.06-.31-.05-.59-.15-.84-.31-.24-.15-.43-.4-.56-.73v7.97Z"/><path class="cls-1" d="m15.11,23.11c-.61-.03-1.08-.24-1.43-.64-.35-.39-.57-.89-.66-1.49-.09-.6-.05-1.26.13-2,.17-.73.48-1.46.92-2.18.44-.72,1.01-1.39,1.71-2.02s1.55-1.13,2.53-1.51c-.67-.14-1.16-.38-1.47-.74-.32-.36-.52-.76-.6-1.21-.08-.45-.07-.92.03-1.41.11-.48.26-.92.45-1.29-.79.15-1.5.41-2.14.77-.64.36-1.16.78-1.55,1.25-.39.47-.64.95-.74,1.45-.1.5,0,.95.31,1.36.08.03.12.06.12.1s0,.07-.02.09-.06.03-.1.03-.09-.04-.14-.11c-.35-.59-.43-1.17-.26-1.75.17-.57.5-1.1.98-1.57s1.04-.86,1.69-1.17c.65-.31,1.29-.5,1.91-.58.29-.51.61-.95.98-1.31.36-.35.73-.63,1.09-.82.36-.19.7-.29,1.02-.31.32-.01.57.07.75.25.2.2.29.42.27.67-.01.25-.15.49-.41.72-.26.23-.64.42-1.16.59-.52.17-1.17.26-1.95.29-.18.33-.35.74-.51,1.21-.16.48-.23.94-.23,1.4,0,.45.14.86.39,1.23.25.36.7.6,1.35.7.08.01.11.05.1.11,0,.06-.09.12-.24.18-.71.27-1.35.7-1.93,1.27s-1.07,1.22-1.48,1.93c-.41.71-.72,1.45-.94,2.2s-.32,1.45-.29,2.07c.02.62.17,1.13.45,1.52s.72.58,1.31.57c.5,0,.98-.17,1.43-.5.45-.33.87-.76,1.24-1.27.37-.51.69-1.08.95-1.7.26-.62.46-1.22.58-1.79.12-.57.16-1.09.13-1.53-.04-.45-.18-.75-.42-.92-.18-.11-.41-.11-.68,0-.27.11-.55.28-.83.53-.28.25-.54.55-.79.91-.25.36-.44.75-.58,1.17-.14.42-.19.86-.17,1.31s.16.87.42,1.28c.05.08.05.12.01.15-.04.02-.09-.01-.15-.1-.27-.47-.41-.95-.42-1.43,0-.48.07-.94.23-1.38.16-.44.37-.84.65-1.2.27-.36.56-.66.87-.9.31-.23.6-.39.88-.45.28-.07.51-.03.69.13.32.27.53.66.62,1.15s.1,1.03.01,1.61c-.09.58-.27,1.17-.54,1.77-.27.6-.62,1.14-1.03,1.63-.42.49-.91.89-1.48,1.2s-1.18.47-1.85.47Zm5.38-16.73c-.12-.11-.3-.14-.54-.09-.24.05-.51.16-.81.33-.3.17-.59.42-.9.73-.3.31-.57.68-.79,1.12.76-.01,1.38-.1,1.86-.25.48-.15.85-.33,1.09-.54.24-.21.37-.44.38-.67,0-.23-.09-.44-.28-.62Z"/><path class="cls-2" d="m5.87,14.69l-.19-.03c-.1-.02-.19-.07-.29-.15-.63-.31-.89-.97-.77-1.98.05-.44.15-.93.29-1.47.14-.55.33-1.14.56-1.75.26-.7.55-1.43.89-2.2.33-.77.69-1.53,1.06-2.3.37-.77.75-1.51,1.14-2.25.39-.74.77-1.41,1.14-2.03l.1-.16h.54l6.02,14.22h-2.32l-2.16-5.18c-.67.08-1.23.23-1.66.45-.49.24-.9.53-1.21.86-.31.33-.56.68-.74,1.05-.19.4-.36.77-.52,1.12-.09.23-.18.47-.28.68-.11.23-.23.43-.36.59-.14.17-.31.31-.5.42-.18.1-.39.15-.62.15h-.11Zm2.72-10.46c-.3.6-.59,1.2-.88,1.81-.29.6-.56,1.21-.81,1.8-.25.6-.48,1.17-.69,1.71-.23.6-.41,1.16-.54,1.68-.13.51-.22.97-.27,1.36-.02.34,0,.64.08.87.07.22.17.28.26.31l.11.04s.08.02.13.04c.27,0,.41-.08.52-.25.18-.26.34-.61.48-1.03.16-.39.35-.78.55-1.19.22-.44.51-.85.87-1.24.36-.39.84-.74,1.41-1.02.47-.24,1.05-.4,1.73-.5l-2.38-5.53c-.19.37-.38.75-.57,1.13Z"/><path class="cls-2" d="m24.98,31.66v-5.28c0-.43-.06-.76-.18-.97-.12-.21-.27-.36-.46-.46-.22-.11-.47-.18-.75-.2-.18-.01-.37-.02-.56-.02-.14,0-.28,0-.42.01-.35.02-.71.04-1.08.05h-.23c-.3,0-.59-.02-.85-.06-.35-.06-.68-.18-.96-.35-.02-.01-.04-.02-.06-.04v7.33h-2.11v-14.21h2.11v4.86c0,.57.1.96.31,1.18.21.23.48.38.82.44.23.04.49.07.75.07.16,0,.33,0,.5-.02.44-.04.87-.06,1.29-.06h.17c.49,0,.95.09,1.35.24.13.05.25.11.36.19v-6.9h2.15v14.21h-2.15Z"/><path class="cls-1" d="m15.1,23.33c-.66-.03-1.2-.27-1.58-.71-.37-.42-.61-.96-.71-1.6-.09-.62-.05-1.32.13-2.08.18-.75.5-1.51.95-2.24.45-.73,1.04-1.43,1.75-2.07.58-.52,1.26-.95,2.02-1.31-.41-.15-.74-.37-.98-.63-.34-.38-.56-.83-.65-1.32-.09-.48-.08-.98.04-1.49.07-.33.17-.65.29-.94-.6.15-1.15.37-1.66.65-.62.35-1.12.75-1.49,1.2-.37.44-.6.9-.69,1.35-.08.42,0,.8.24,1.15.11.06.18.14.19.23l.02.11-.1.17s-.13.1-.26.1-.24-.07-.32-.22c-.38-.64-.47-1.29-.28-1.92.18-.61.53-1.16,1.03-1.66.49-.48,1.08-.89,1.75-1.21.63-.3,1.26-.5,1.86-.58.28-.49.61-.91.96-1.26.38-.37.76-.66,1.14-.85.39-.2.76-.31,1.11-.33h.01c.42,0,.69.11.9.31.24.24.36.52.34.84-.02.31-.18.6-.48.86-.28.25-.7.46-1.24.63-.5.16-1.14.26-1.89.3-.15.3-.3.66-.44,1.07-.15.45-.22.9-.22,1.32,0,.41.12.78.35,1.11.21.31.62.52,1.21.61.22.04.3.21.29.35-.03.2-.23.3-.37.36-.68.26-1.31.67-1.86,1.22-.56.56-1.04,1.19-1.44,1.88-.4.69-.71,1.42-.92,2.15-.21.73-.31,1.4-.29,2,.02.58.16,1.05.41,1.4.23.32.58.48,1.06.48.51,0,.95-.16,1.36-.46.43-.32.83-.73,1.19-1.22.36-.5.67-1.06.93-1.66s.45-1.19.57-1.75c.12-.55.16-1.04.12-1.47-.03-.38-.14-.63-.33-.76-.04-.02-.11-.04-.18-.04-.09,0-.19.02-.3.06-.25.1-.5.26-.76.49-.26.24-.52.53-.76.87-.24.34-.42.71-.55,1.11-.13.4-.18.81-.16,1.23.02.41.15.8.39,1.18.18.29-.03.43-.06.45l-.05.03h-.09c-.17,0-.27-.14-.3-.2-.3-.51-.45-1.03-.46-1.55,0-.51.07-1,.24-1.46.16-.46.39-.88.68-1.26.28-.38.59-.69.92-.94.33-.25.66-.42.96-.49.1-.03.2-.04.3-.04.22,0,.42.07.59.21.36.31.59.73.7,1.27.1.51.11,1.08.01,1.69-.09.6-.28,1.21-.56,1.83-.28.61-.64,1.18-1.06,1.68-.43.51-.95.93-1.54,1.25-.6.33-1.25.49-1.95.49h-.01Zm5.05-16.84s-.1,0-.16.02c-.21.04-.46.14-.74.3-.28.16-.56.4-.85.69-.21.21-.4.46-.57.74.56-.03,1.04-.11,1.42-.23.45-.14.79-.31,1.01-.5.19-.17.29-.34.3-.51,0-.17-.07-.32-.21-.46-.04-.03-.11-.05-.2-.05Z"/></svg>