<?xml version="1.0" encoding="utf-8"?>
<!-- Generator: Adobe Illustrator 27.4.1, SVG Export Plug-In . SVG Version: 6.00 Build 0)  -->
<svg version="1.1" id="Layer_1" xmlns="http://www.w3.org/2000/svg" xmlns:xlink="http://www.w3.org/1999/xlink" x="0px" y="0px"
	 viewBox="0 0 265 35" style="enable-background:new 0 0 265 35;" xml:space="preserve">
<style type="text/css">
	.st0{display:none;}
	.st1{display:inline;}
	.st2{fill:#BAB185;}
	.st3{fill:#505C49;}
</style>
<g class="st0">
	<g class="st1">
		<g>
			<path d="M102.5,18.4c-0.2,0.3-0.5,0.6-0.7,0.9c-0.3,0.3-0.5,0.6-0.8,0.8c-0.3,0.2-0.6,0.5-1,0.6c-0.4,0.2-0.7,0.2-1.1,0.2
				c-0.8,0-1.5-0.1-2.1-0.4c-0.7-0.3-1.2-0.6-1.7-1c-0.8,0.6-1.6,1.1-2.4,1.6c-0.8,0.5-1.7,0.9-2.5,1.1c-0.8,0.3-1.7,0.4-2.5,0.3
				s-1.7-0.3-2.5-0.8c-0.5-0.3-0.9-0.8-1.2-1.3c-0.3-0.5-0.5-1.1-0.6-1.7c-0.1-0.6-0.1-1.3,0.1-1.9c0.1-0.7,0.4-1.3,0.8-1.9
				c0.4-0.6,0.9-1.2,1.6-1.7c0.6-0.5,1.4-0.9,2.3-1.2c-0.7-1-1.2-1.9-1.4-2.9c-0.2-1-0.2-1.8,0-2.6c0.2-0.8,0.6-1.4,1.2-1.9
				c0.6-0.5,1.3-0.7,2.3-0.7c0.6,0,1.2,0.1,1.7,0.4c0.5,0.3,0.9,0.6,1.2,1.1c0.3,0.4,0.5,0.9,0.6,1.5c0.1,0.5,0,1.1-0.2,1.7
				c-0.2,0.6-0.6,1.1-1.1,1.6c-0.5,0.5-1.3,0.9-2.2,1.3c0.8,1.1,1.7,2.2,2.7,3.5c1,1.2,2.1,2.4,3.3,3.6c0.6-0.5,1.2-1.1,1.6-1.6
				c0.4-0.6,0.7-1,0.9-1.3l0.1,0.1c-0.2,0.4-0.6,0.9-1,1.4c-0.4,0.5-0.9,1.1-1.5,1.6c0.5,0.3,0.9,0.6,1.3,0.9
				c0.4,0.3,0.9,0.5,1.4,0.7c0.7,0.2,1.3,0.1,1.9-0.2C101.3,19.7,101.9,19.1,102.5,18.4L102.5,18.4z M88.1,12.1
				c-0.8,0.3-1.6,0.7-2.2,1.3c-0.6,0.6-1.1,1.2-1.3,1.9c-0.3,0.7-0.4,1.4-0.3,2.2c0.1,0.8,0.5,1.6,1.1,2.3c0.6,0.7,1.2,1.1,2,1.4
				c0.7,0.3,1.5,0.3,2.3,0.3c0.8-0.1,1.7-0.3,2.5-0.6c0.9-0.4,1.7-0.8,2.6-1.4c-0.5-0.4-1.1-0.9-1.7-1.6c-0.6-0.6-1.2-1.3-1.9-2
				c-0.6-0.7-1.2-1.4-1.8-2C89,13.2,88.5,12.6,88.1,12.1z M90,4.2c-0.7,0-1.2,0.1-1.6,0.4s-0.7,0.7-0.7,1.3
				c-0.1,0.6,0.1,1.3,0.4,2.2c0.4,0.9,1,1.9,1.9,3.1c0.5-0.3,1-0.7,1.4-1.2c0.4-0.5,0.6-1,0.8-1.5c0.2-0.5,0.3-1.1,0.3-1.6
				c0-0.5-0.1-1-0.3-1.4c-0.2-0.4-0.4-0.8-0.8-1C91,4.3,90.6,4.2,90,4.2z"/>
		</g>
	</g>
	<g class="st1">
		<g>
			<g>
				<path d="M54.1,8.9c0.3-1.5,0.6-2.8,1-4s0.7-2.2,1.1-2.9c0.4-0.8,0.8-1.4,1.3-1.7c0.4-0.4,0.9-0.5,1.3-0.5
					c0.4,0.1,0.6,0.3,0.7,0.7c0,0.4-0.1,1-0.4,1.7c-0.3,0.7-0.8,1.5-1.4,2.5c-0.6,1-1.4,2-2.3,3.2c-0.3,1.4-0.5,3-0.7,4.7
					c-0.2,1.8-0.3,3.5-0.4,5.3c0.3-0.1,0.6-0.3,0.9-0.4c0.3-0.1,0.6-0.3,0.8-0.4c0.2-0.2,0.5-0.3,0.6-0.5c0.2-0.2,0.3-0.4,0.4-0.7
					c-0.1-0.1-0.1-0.1-0.1-0.1c0,0,0-0.1,0.1-0.1c0,0,0.1,0,0.1,0c0,0,0.1,0.1,0.1,0.2c-0.1,0.3-0.2,0.6-0.4,0.8
					c-0.2,0.2-0.4,0.4-0.7,0.6c-0.3,0.2-0.5,0.3-0.9,0.5c-0.3,0.1-0.6,0.3-1,0.4c-0.1,1.5-0.1,3-0.1,4.3c0,1.3,0,2.5,0.1,3.5
					c0.1,1,0.2,1.9,0.4,2.5c0.2,0.7,0.4,1.1,0.8,1.3c0.3,0.2,0.6,0.2,0.9,0c0.3-0.2,0.5-0.5,0.7-0.8s0.4-0.7,0.5-1.1
					c0.1-0.4,0.2-0.7,0.3-0.9c-0.1,0-0.1-0.1-0.1-0.1c0,0,0-0.1,0.1-0.1c0,0,0.1,0,0.1,0c0,0,0,0.1,0,0.2c-0.1,0.6-0.2,1.1-0.4,1.6
					c-0.2,0.4-0.4,0.8-0.7,1.1c-0.2,0.3-0.5,0.4-0.7,0.5c-0.2,0.1-0.5,0.1-0.7-0.1c-0.9-0.5-1.4-1.7-1.8-3.7c-0.3-2-0.4-4.6-0.3-7.9
					c-0.8,0.2-1.5,0.4-2.3,0.5c-0.8,0.1-1.7,0.2-2.7,0.2c-1.1,1.7-2.3,3.3-3.5,4.9s-2.4,2.9-3.6,4c-1.2,1.1-2.4,2-3.6,2.6
					C36.2,31,35,31.2,34,31c-0.8-0.2-1.6-0.6-2.2-1.2c-0.6-0.6-1.1-1.3-1.4-2.2c-0.3-0.8-0.5-1.8-0.4-2.8c0-1,0.2-2,0.6-3
					c0.4-1,1-2,1.7-2.9c0.8-0.9,1.8-1.7,3-2.3c0.8-0.4,1.5-0.6,2-0.6c0.6,0,1,0.2,1.3,0.5c0.3,0.3,0.6,0.7,0.7,1.2
					c0.1,0.5,0.1,1,0,1.6c1.2-0.2,2.6-0.3,4.1-0.3c1.5,0,3-0.1,4.5-0.2c1-1.4,1.9-3,2.9-4.6C51.8,12.5,52.9,10.8,54.1,8.9z M34,30.8
					c1.8,0.4,3.9-0.4,6.2-2.5c2.3-2,4.8-5.2,7.7-9.4c-1.5,0.1-3,0.1-4.5,0.1c-1.5,0-2.8,0.1-4.1,0.3c-0.2,0.8-0.5,1.4-0.9,1.9
					c-0.4,0.5-0.8,0.9-1.2,1.1c-0.4,0.2-0.8,0.4-1.2,0.4c-0.4,0-0.7,0-0.9-0.1c-0.2-0.1-0.3-0.3-0.4-0.5c-0.1-0.3-0.1-0.6,0.1-1
					c0.2-0.4,0.6-0.7,1.3-1.1c0.7-0.4,1.7-0.7,3.2-0.9c0.1-0.5,0.1-1,0-1.5c-0.1-0.5-0.3-0.9-0.7-1.2s-0.8-0.4-1.4-0.4
					c-0.6,0-1.3,0.3-2.1,0.7c-1.2,0.7-2.2,1.5-3,2.4s-1.3,1.9-1.6,2.9c-0.3,1-0.5,2-0.5,2.9c0,1,0.2,1.8,0.5,2.6
					c0.3,0.8,0.8,1.5,1.3,2C32.6,30.3,33.2,30.7,34,30.8z M35.1,22.7c0.1,0.1,0.3,0.1,0.7,0.1c0.3,0,0.7-0.2,1.2-0.4
					c0.4-0.2,0.9-0.6,1.3-1c0.4-0.5,0.8-1.1,1-1.9c-1.2,0.2-2.1,0.4-2.7,0.7c-0.6,0.3-1.1,0.6-1.4,0.9s-0.4,0.6-0.4,0.9
					S34.9,22.5,35.1,22.7z M54,9.2c-0.9,1.4-1.7,2.9-2.7,4.6c-0.9,1.7-2,3.3-3.1,5c1-0.1,1.8-0.1,2.6-0.3c0.8-0.1,1.5-0.3,2.3-0.5
					c0.1-1.6,0.2-3.1,0.3-4.7C53.6,11.8,53.8,10.4,54,9.2z M55.3,7.4c0.8-1,1.4-1.9,2-2.8c0.6-0.9,1.1-1.7,1.4-2.4
					c0.3-0.7,0.5-1.3,0.5-1.7c0-0.4-0.2-0.6-0.6-0.7c-0.5,0-1.1,0.6-1.7,1.8C56.4,2.9,55.9,4.8,55.3,7.4z"/>
				<path d="M61.7,21.4c0.2,0,0.5-0.1,0.9-0.3s0.7-0.5,1-0.9c0.4-0.4,0.7-0.8,1.1-1.4c0.4-0.5,0.8-1.1,1.2-1.8
					c0-0.1,0.1-0.1,0.1-0.1c0,0,0,0,0,0.2c-0.2,0.4-0.5,0.8-0.8,1.3c-0.3,0.5-0.7,1-1.1,1.5c-0.4,0.5-0.8,0.9-1.2,1.2
					c-0.4,0.3-0.8,0.5-1.1,0.4c-0.6-0.1-1-0.4-1.2-1C60.2,20,60,19.4,60,18.5c0-0.8,0-1.7,0.1-2.6c0.1-0.9,0.3-1.8,0.4-2.6
					c0.4-2.1,1-4,1.6-5.8c0.6-1.7,1.3-3.2,2-4.4c0.7-1.2,1.4-2.1,2.1-2.8c0.7-0.6,1.4-0.9,2-0.7c0.5,0.1,0.8,0.5,0.9,1.2
					c0.1,0.7,0,1.5-0.3,2.5c-0.3,1-0.7,2.1-1.2,3.3c-0.5,1.2-1.2,2.4-1.9,3.6s-1.5,2.4-2.3,3.5c-0.8,1.1-1.6,2.1-2.4,2.9
					c-0.2,1.6-0.2,2.8-0.1,3.6C61.1,21,61.3,21.4,61.7,21.4z M68.1-0.2c-0.4-0.1-0.8,0-1.3,0.4c-0.5,0.4-0.9,0.9-1.4,1.7
					c-0.5,0.7-0.9,1.6-1.4,2.7c-0.5,1-0.9,2.2-1.3,3.5c-0.4,1.3-0.8,2.6-1.1,4c-0.3,1.4-0.6,2.9-0.7,4.4c0.8-0.8,1.5-1.7,2.3-2.8
					c0.8-1.1,1.5-2.2,2.2-3.4c0.7-1.2,1.3-2.4,1.8-3.6c0.5-1.2,0.9-2.3,1.2-3.2c0.3-1,0.4-1.8,0.3-2.4S68.6-0.1,68.1-0.2z"/>
				<path d="M66.5,22.2c-0.7,0-1.1-0.5-1.2-1.4c-0.1-0.9,0-2.2,0.4-3.7c0.2-0.5,0.4-0.8,0.7-0.8c0.2,0,0.3,0.3,0.2,0.8
					c-0.1,0.6-0.3,1.1-0.4,1.7c-0.1,0.6-0.2,1.1-0.3,1.6c-0.1,0.5,0,0.9,0,1.2c0.1,0.3,0.3,0.5,0.6,0.5c0.2,0,0.4-0.1,0.6-0.4
					c0.2-0.3,0.5-0.6,0.8-1.1c0.3-0.5,0.6-1,0.9-1.6c0.3-0.6,0.6-1.2,1-1.9c0-0.1,0.1-0.1,0.1-0.1c0,0,0.1,0.1,0.1,0.1
					c-0.4,0.7-0.7,1.4-1,2.1c-0.3,0.6-0.7,1.2-1,1.6c-0.3,0.5-0.6,0.8-0.8,1.1C66.9,22.1,66.7,22.2,66.5,22.2z M66.5,14.2
					c0.1-0.2,0.1-0.3,0.2-0.3c0.1-0.1,0.2-0.1,0.3-0.1c0.1,0,0.2,0.1,0.2,0.1c0.1,0.1,0.1,0.2,0,0.3c-0.1,0.2-0.1,0.3-0.2,0.4
					c-0.1,0.1-0.2,0.1-0.3,0.1c-0.1,0-0.2-0.1-0.2-0.2C66.4,14.5,66.4,14.3,66.5,14.2z"/>
				<path d="M72.5,15.9c0,0.1-0.1,0.1-0.1,0.1c0,0-0.1,0,0-0.1c0.3-0.5,0.5-1,0.4-1.4c0-0.4-0.2-0.7-0.5-0.8c-0.3-0.1-0.5,0-0.8,0.3
					c-0.2,0.3-0.4,0.7-0.6,1.2c-0.2,0.5-0.3,1.1-0.3,1.7c-0.1,0.6-0.1,1.2-0.1,1.8c0,0.6,0.1,1,0.3,1.4c0.1,0.4,0.4,0.6,0.6,0.7
					c0.3,0,0.8-0.3,1.4-0.9c0.6-0.6,1.2-1.6,1.9-2.9c0-0.1,0.1-0.1,0.1-0.1c0,0,0.1,0.1,0.1,0.1c-0.7,1.5-1.4,2.6-2,3.2
					c-0.6,0.6-1.1,0.9-1.5,0.8c-0.5,0-0.8-0.2-1.1-0.6c-0.2-0.3-0.4-0.7-0.5-1.2c-0.1-0.5-0.1-0.9-0.1-1.4c0-0.5,0.1-0.9,0.1-1.3
					c0.2-1.1,0.6-2,1-2.6s1-0.8,1.6-0.5c0.3,0.1,0.5,0.4,0.5,0.9C73,14.9,72.8,15.3,72.5,15.9z"/>
				<path d="M76.6,20.9c0.6,0,1.2-0.4,1.7-1c0.6-0.6,1.2-1.6,1.9-2.9c0-0.1,0.1-0.1,0.1-0.1c0,0,0.1,0.1,0,0.1
					c-0.3,0.5-0.6,1-0.9,1.5c-0.3,0.5-0.6,0.9-0.9,1.3c-0.3,0.4-0.6,0.7-1,0.9c-0.3,0.2-0.7,0.3-1,0.3c-0.5,0-0.9-0.1-1.2-0.4
					s-0.5-0.6-0.6-1c-0.1-0.4-0.2-0.9-0.2-1.4s0-1.1,0.1-1.6c0.2-1,0.5-1.7,0.9-2.3c0.4-0.6,1-0.7,1.6-0.6c0.2,0.1,0.4,0.3,0.4,0.6
					c0,0.3,0,0.7-0.2,1c-0.1,0.4-0.4,0.7-0.7,0.9c-0.3,0.3-0.7,0.4-1.1,0.3c-0.1,0.5-0.2,1-0.2,1.5c0,0.5,0,0.9,0.1,1.3
					c0.1,0.4,0.2,0.7,0.4,1C76.1,20.8,76.3,21,76.6,20.9z M77.1,14c-0.3-0.1-0.5,0.1-0.8,0.5c-0.2,0.4-0.4,0.9-0.6,1.6
					c0,0.2-0.1,0.3-0.1,0.6c0.4,0.1,0.7,0,1-0.3c0.3-0.2,0.5-0.5,0.6-0.9c0.1-0.3,0.2-0.7,0.2-1C77.4,14.3,77.3,14.1,77.1,14z"/>
			</g>
		</g>
		<g>
			<g>
				<path d="M134.1-1.8c-0.5,0-0.9,0.3-1.5,1.2c-0.5,0.8-1,1.9-1.5,3.3c-0.5,1.4-1,2.9-1.4,4.7c-0.4,1.8-0.8,3.6-1.2,5.5
					s-0.6,3.7-0.9,5.5c-0.2,1.8-0.3,3.4-0.4,4.9c0,1.5,0,2.7,0.2,3.6c0.2,0.9,0.5,1.5,1,1.6c0.1,0,0.3,0,0.4,0
					c0.1-0.1,0.2-0.2,0.3-0.3c0.1-0.1,0.2-0.2,0.2-0.3c0.1-0.1,0.1-0.2,0.1-0.3c-0.1-0.1-0.1-0.1,0-0.2s0.1,0,0.1,0.2
					c0,0.1,0,0.2-0.1,0.3c0,0.1-0.1,0.3-0.2,0.4c-0.1,0.1-0.2,0.2-0.4,0.3c-0.1,0.1-0.3,0.1-0.5,0.1c-0.4,0-0.8-0.3-1.1-0.7
					c-0.3-0.4-0.5-1-0.6-1.8c-0.1-0.8-0.2-1.6-0.2-2.6c0-1,0-2.1,0.1-3.3c0.1-1.2,0.2-2.4,0.3-3.7c0.2-1.3,0.3-2.5,0.5-3.8
					c-0.5-0.1-1-0.1-1.6-0.2c-0.6-0.1-1.3-0.1-1.9-0.1c-0.7,0-1.3,0-2,0c-0.7,0-1.3,0.1-1.9,0.1c-0.2,1-0.3,2.1-0.5,3.1
					c-0.2,1.1-0.4,2.2-0.6,3.3c-0.6,3.1-1.7,5.4-3.1,7.1c-1.4,1.7-3.2,2.5-5.3,2.5c-1.2,0-2.3-0.3-3.2-0.8c-0.9-0.6-1.6-1.3-2.2-2.2
					c-0.6-0.9-0.9-1.9-1.1-3c-0.2-1.1-0.2-2.3,0-3.4c0.2-1.2,0.6-2.3,1.1-3.4c0.6-1.1,1.4-2.1,2.4-3c0.7-0.6,1.4-1.1,2.1-1.3
					c0.7-0.2,1.3-0.3,1.8-0.2c0.6,0.1,1,0.3,1.5,0.6c0.4,0.3,0.7,0.7,1,1.2c0.2,0.5,0.3,1,0.3,1.5c0,0.6-0.1,1.1-0.4,1.7
					c-0.2,0.4-0.4,0.7-0.8,1.1c-0.3,0.4-0.7,0.7-1.1,1c-0.4,0.3-0.9,0.6-1.3,0.8c-0.5,0.2-0.9,0.3-1.4,0.4c-0.1,0-0.2,0-0.2,0
					c0,0,0,0,0-0.1c0,0,0.1,0,0.1,0c0.1,0,0.1,0,0.1,0c0.9-0.2,1.7-0.5,2.4-1c0.7-0.5,1.3-1.1,1.7-1.7c0.4-0.5,0.6-1.1,0.6-1.7
					c0.1-0.6,0-1.1-0.2-1.6c-0.2-0.5-0.5-0.9-0.9-1.3c-0.4-0.4-0.9-0.6-1.4-0.7c-0.6-0.1-1.2-0.1-1.8,0.1c-0.7,0.2-1.4,0.6-2.1,1.2
					c-1,0.9-1.8,1.9-2.4,3c-0.6,1.1-1,2.2-1.1,3.4c-0.2,1.2-0.2,2.3,0,3.4c0.2,1.1,0.6,2.1,1.1,3c0.6,0.9,1.3,1.6,2.2,2.1
					c0.9,0.5,1.9,0.8,3.1,0.8c0.8,0,1.6-0.1,2.4-0.6c0.8-0.4,1.5-1,2.1-1.9c0.6-0.8,1.2-1.9,1.8-3.1c0.5-1.2,1-2.7,1.3-4.3
					c0.2-1,0.4-2,0.5-3c0.1-1,0.3-2,0.4-3.1c-0.5,0.1-0.9,0.3-1.2,0.5s-0.4,0.5-0.4,0.8c0,0.2,0,0.2-0.1,0.2c-0.1,0-0.1-0.1-0.2-0.2
					c0-0.4,0.2-0.7,0.5-0.9c0.3-0.2,0.8-0.4,1.3-0.5c0.2-1.7,0.5-3.5,0.9-5.2c0.3-1.7,0.9-3.5,1.6-5.2c-2.8-0.8-5.2-1.1-7.2-1
					s-3.7,0.5-5.1,1.2c-1.4,0.7-2.5,1.6-3.3,2.7c-0.8,1.1-1.4,2.2-1.7,3.4c-0.3,1.2-0.4,2.3-0.3,3.3c0.1,1.1,0.4,1.9,0.8,2.6
					c0.2,0,0.2,0.1,0.1,0.2c-0.1,0.1-0.2,0-0.3-0.2c-0.3-0.5-0.6-1.1-0.7-1.9c-0.1-0.8-0.2-1.6-0.1-2.4c0.1-0.9,0.3-1.7,0.7-2.6
					c0.3-0.9,0.8-1.7,1.5-2.5c0.6-0.8,1.4-1.5,2.4-2.1c0.9-0.6,2.1-1.1,3.4-1.4c1.3-0.3,2.8-0.4,4.4-0.4c1.7,0.1,3.5,0.4,5.6,1
					c0.3-0.6,0.6-1.2,0.9-1.8c0.3-0.5,0.7-0.9,1.1-1.3c0.4-0.3,0.8-0.6,1.1-0.7c0.4-0.1,0.7-0.1,1.1,0c0.4,0.2,0.6,0.6,0.6,1.1
					c0.1,0.5,0,1-0.3,1.5c-0.3,0.5-0.7,0.9-1.4,1.2c-0.6,0.3-1.5,0.4-2.5,0.2c-0.6,1.8-1.1,3.4-1.4,5.1c-0.3,1.6-0.6,3.3-0.8,5
					c0.6-0.1,1.2-0.1,1.9-0.1c0.7,0,1.3,0,2,0c0.7,0,1.3,0.1,1.9,0.1c0.6,0,1.2,0.1,1.7,0.2c0.2-1.1,0.5-2.3,0.7-3.5
					c0.3-1.2,0.6-2.3,0.9-3.4c0.3-1.1,0.7-2.1,1.1-3.1c0.4-0.9,0.8-1.8,1.2-2.5c0.4-0.7,0.8-1.2,1.3-1.6c0.4-0.4,0.9-0.5,1.3-0.5
					c0.3,0.1,0.5,0.2,0.6,0.5c0.1,0.3,0.1,0.6,0,0.9c-0.1,0.3-0.3,0.7-0.5,1c-0.3,0.3-0.5,0.6-0.9,0.8c-0.1,0.1-0.2,0.1-0.2,0
					c0,0,0.1-0.1,0.2-0.2c0.3-0.2,0.5-0.4,0.8-0.7c0.2-0.3,0.4-0.6,0.5-0.9c0.1-0.3,0.1-0.6,0.1-0.8C134.5-1.6,134.3-1.8,134.1-1.8z
					 M122.4,2.1c0.7,0.1,1.3,0.1,1.8,0c0.5-0.1,0.9-0.3,1.2-0.5c0.3-0.2,0.5-0.5,0.7-0.8c0.2-0.3,0.2-0.6,0.3-1c0-0.3,0-0.6-0.1-0.8
					c-0.1-0.2-0.2-0.4-0.4-0.5c-0.1-0.1-0.3-0.1-0.6,0c-0.2,0.1-0.5,0.2-0.8,0.5c-0.3,0.3-0.6,0.7-1,1.2
					C123.1,0.6,122.7,1.3,122.4,2.1z"/>
				<path d="M133.7,19.3c0.6,0,1.2-0.4,1.7-1c0.6-0.6,1.2-1.6,1.9-2.9c0-0.1,0.1-0.1,0.1-0.1c0,0,0.1,0.1,0,0.1
					c-0.3,0.5-0.6,1-0.9,1.5c-0.3,0.5-0.6,0.9-0.9,1.3c-0.3,0.4-0.6,0.7-1,0.9c-0.3,0.2-0.7,0.3-1,0.3c-0.5,0-0.9-0.1-1.2-0.4
					s-0.5-0.6-0.6-1c-0.1-0.4-0.2-0.9-0.2-1.4c0-0.5,0-1.1,0.1-1.6c0.2-1,0.5-1.7,0.9-2.3c0.4-0.6,1-0.7,1.6-0.6
					c0.2,0.1,0.4,0.3,0.4,0.6s0,0.7-0.2,1c-0.1,0.4-0.4,0.7-0.7,0.9c-0.3,0.3-0.7,0.4-1.1,0.3c-0.1,0.5-0.2,1-0.2,1.5
					c0,0.5,0,0.9,0.1,1.3c0.1,0.4,0.2,0.7,0.4,1C133.1,19.2,133.3,19.3,133.7,19.3z M134.1,12.4c-0.3-0.1-0.5,0.1-0.8,0.5
					c-0.2,0.4-0.4,0.9-0.6,1.6c0,0.2-0.1,0.3-0.1,0.6c0.4,0.1,0.7,0,1-0.3c0.3-0.2,0.5-0.5,0.6-0.9c0.1-0.3,0.2-0.7,0.2-1
					C134.5,12.6,134.3,12.4,134.1,12.4z"/>
				<path d="M141,20.8c-0.7,0.1-1.1-0.7-1.1-2.2c0-0.5,0-1.1,0.1-1.7c0.1-0.6,0.2-1.2,0.3-1.8c0.1-0.6,0.1-1.1,0.2-1.5
					c0-0.4,0-0.6-0.1-0.6c-0.1,0-0.2,0.1-0.4,0.3c-0.2,0.2-0.4,0.5-0.7,1c-0.3,0.4-0.6,1-0.9,1.6c-0.3,0.6-0.6,1.4-0.8,2.2
					c0,0.1-0.1,0.2-0.2,0.3c-0.1,0.1-0.2,0.1-0.3,0.1c-0.1,0-0.2,0-0.2-0.1c-0.1-0.1-0.1-0.2-0.1-0.3c0-0.3,0-0.6,0.1-0.8
					c0-0.2,0.1-0.5,0.1-0.7c0-0.2,0.1-0.5,0.1-0.8c0-0.3,0.1-0.6,0.2-1c0-0.3,0.1-0.5,0.2-0.6c0.1-0.1,0.2-0.2,0.3-0.2
					c0.1,0,0.2,0.1,0.3,0.2c0.1,0.1,0.1,0.3,0.1,0.4c-0.1,0.6-0.2,1-0.2,1.1c0,0.2-0.1,0.3-0.1,0.4c0,0.1,0,0.2-0.1,0.3
					c0,0.1-0.1,0.4-0.2,0.8c0-0.2,0.2-0.5,0.4-1.1c0.2-0.5,0.5-1,0.7-1.6c0.3-0.5,0.6-1,0.9-1.4c0.3-0.4,0.6-0.6,0.8-0.6
					c0.3,0,0.6,0.2,0.7,0.6c0.1,0.4,0.1,0.9,0.1,1.4c0,0.6-0.1,1.2-0.3,1.8c-0.1,0.6-0.2,1.3-0.3,1.8c-0.1,0.6-0.1,1.1-0.1,1.4
					c0,0.4,0.1,0.6,0.4,0.6c0.2,0,0.4-0.1,0.7-0.4c0.3-0.3,0.6-0.8,0.9-1.3c0.3-0.5,0.7-1.1,1-1.7c0.3-0.6,0.6-1.2,0.8-1.8
					c0-0.1,0.1-0.1,0.1-0.1c0,0,0.1,0,0.1,0.1c-0.3,0.6-0.6,1.2-0.9,1.8c-0.3,0.6-0.6,1.2-1,1.7c-0.3,0.5-0.6,1-0.9,1.3
					C141.5,20.6,141.2,20.8,141,20.8z"/>
				<path d="M144.3,15.5c-0.5-0.3-0.8-0.7-0.9-1.2c-0.1-0.5-0.1-0.9,0.1-1.4c0.2-0.4,0.4-0.8,0.7-1c0.3-0.3,0.7-0.3,1-0.2
					c0.2,0.1,0.3,0.3,0.3,0.6c0,0.3,0,0.6-0.1,1c-0.1,0.4-0.2,0.7-0.4,1.1c-0.2,0.4-0.3,0.7-0.5,0.9c0.1,0.1,0.2,0.1,0.5,0.3
					c0.3,0.1,0.6,0.2,0.8,0.4c0.2,0.1,0.4,0.3,0.4,0.6c0,0.3,0,0.6-0.1,0.9c-0.1,0.3-0.2,0.7-0.3,1.1c-0.1,0.4-0.3,0.7-0.4,1
					c-0.1,0.3-0.2,0.5-0.2,0.7c0,0.2,0.1,0.3,0.2,0.3c0.2,0,0.4-0.1,0.7-0.4c0.3-0.3,0.6-0.7,1-1.2c0.4-0.5,0.7-1.1,1.1-1.7
					c0.4-0.6,0.7-1.3,1.1-2c0-0.1,0.1-0.1,0.1-0.1c0,0,0.1,0.1,0.1,0.1c-0.4,0.7-0.7,1.5-1.1,2.1c-0.4,0.7-0.8,1.3-1.1,1.8
					c-0.4,0.5-0.7,0.9-1,1.2c-0.3,0.3-0.6,0.4-0.8,0.4c-0.5,0-0.7-0.2-0.8-0.6c-0.1-0.4-0.1-0.8,0-1.3c0.1-0.5,0.2-1,0.4-1.5
					c0.2-0.5,0.4-1,0.5-1.3c-0.2-0.1-0.4-0.2-0.6-0.3C144.8,15.8,144.6,15.7,144.3,15.5z M145.1,11.9c-0.2-0.1-0.4,0-0.6,0.3
					c-0.2,0.3-0.4,0.6-0.5,0.9c-0.1,0.4-0.2,0.8-0.1,1.2c0,0.4,0.2,0.8,0.4,1c0.2-0.3,0.4-0.6,0.5-1c0.2-0.4,0.3-0.7,0.4-1.1
					c0.1-0.3,0.1-0.6,0.1-0.9C145.4,12.1,145.3,12,145.1,11.9z"/>
				<path d="M150.1,20.6c-0.7,0-1.1-0.5-1.2-1.4c-0.1-0.9,0-2.2,0.4-3.7c0.2-0.5,0.4-0.8,0.7-0.8c0.2,0,0.3,0.3,0.2,0.8
					c-0.1,0.6-0.3,1.1-0.4,1.7c-0.1,0.6-0.2,1.1-0.3,1.6c-0.1,0.5,0,0.9,0,1.2c0.1,0.3,0.3,0.5,0.6,0.5c0.2,0,0.4-0.1,0.6-0.4
					c0.2-0.3,0.5-0.6,0.8-1.1c0.3-0.5,0.6-1,0.9-1.6c0.3-0.6,0.6-1.2,1-1.9c0-0.1,0.1-0.1,0.1-0.1c0,0,0.1,0.1,0.1,0.1
					c-0.4,0.7-0.7,1.4-1,2.1c-0.3,0.6-0.7,1.2-1,1.6c-0.3,0.5-0.6,0.8-0.8,1.1C150.5,20.4,150.3,20.6,150.1,20.6z M150.1,12.5
					c0.1-0.2,0.1-0.3,0.2-0.3c0.1-0.1,0.2-0.1,0.3-0.1c0.1,0,0.2,0.1,0.2,0.1c0.1,0.1,0.1,0.2,0,0.3c-0.1,0.2-0.1,0.3-0.2,0.4
					c-0.1,0.1-0.2,0.1-0.3,0.1c-0.1,0-0.2-0.1-0.2-0.2C150,12.8,150,12.7,150.1,12.5z"/>
				<path d="M159,12.3c0.1-0.2,0.2-0.4,0.3-0.5c0.2-0.1,0.3-0.1,0.4-0.1c0.1,0,0.2,0.1,0.3,0.2c0.1,0.1,0.1,0.3,0,0.6
					c-0.3,0.9-0.6,2-1,3.3c-0.4,1.3-0.9,2.8-1.3,4.3c0.5,0,1-0.1,1.5-0.2c0.5-0.1,1-0.3,1.5-0.6c0.5-0.3,1.1-0.8,1.6-1.4
					c0.6-0.6,1.1-1.4,1.7-2.5c0-0.1,0.1-0.1,0.1-0.1c0,0,0.1,0.1,0,0.1c-0.5,1-1,1.8-1.6,2.4c-0.6,0.6-1.1,1.1-1.7,1.5
					c-0.6,0.4-1.1,0.6-1.7,0.7c-0.6,0.1-1.1,0.2-1.6,0.2c0,0,0,0.1,0,0.1c0,0,0,0,0,0.1c0.7,1.2,1.3,2.5,1.7,3.8
					c0.4,1.3,0.6,2.6,0.7,3.9c0.1,1.3,0.1,2.5-0.1,3.7c-0.2,1.2-0.4,2.2-0.7,3.1c-0.3,0.9-0.7,1.6-1.2,2.2c-0.4,0.5-0.9,0.8-1.4,0.8
					c-0.9,0-1.5-0.4-1.9-1.2c-0.4-0.8-0.6-1.9-0.6-3.2c0-1.3,0.1-2.9,0.4-4.6c0.3-1.7,0.6-3.4,1.1-5.2c0.4-1.8,0.9-3.5,1.4-5.1
					c0.5-1.7,1-3.1,1.4-4.4c-0.7,1.7-1.4,2.9-1.9,3.8c-0.5,0.8-0.9,1.3-1.3,1.4c-0.5,0.1-0.8,0.1-1.1-0.1c-0.3-0.2-0.5-0.5-0.7-0.9
					c-0.2-0.4-0.2-0.9-0.3-1.4c0-0.5,0-1,0.1-1.5c0.2-0.8,0.5-1.4,0.8-1.9c0.4-0.5,0.8-0.8,1.2-1.1c0.4-0.3,0.8-0.4,1.2-0.5
					c0.4-0.1,0.7-0.1,0.9,0c0.4,0,0.6,0.2,0.8,0.4c0.2,0.3,0.3,0.6,0.3,1L159,12.3z M157.4,12c-0.5,0-1,0.2-1.4,0.6
					c-0.4,0.4-0.8,0.8-1.1,1.4c-0.3,0.6-0.5,1.2-0.7,1.8c-0.2,0.6-0.2,1.2-0.2,1.8c0,0.5,0.1,1,0.3,1.3c0.2,0.3,0.5,0.5,0.8,0.4
					c0.2-0.1,0.4-0.3,0.7-0.6c0.3-0.3,0.5-0.8,0.8-1.3c0.3-0.5,0.6-1.1,0.9-1.8c0.3-0.7,0.6-1.3,0.9-2c0-0.4-0.1-0.7-0.3-1.1
					C158,12.2,157.7,12,157.4,12z M156.6,37.8c0.4,0,0.8-0.2,1.2-0.7c0.4-0.5,0.8-1.1,1.1-2c0.3-0.8,0.6-1.8,0.7-2.9
					c0.2-1.1,0.2-2.3,0.2-3.6c-0.1-1.3-0.3-2.6-0.6-3.9c-0.4-1.4-0.9-2.7-1.6-4c-0.4,1.3-0.7,2.6-1.1,3.9c-0.4,1.3-0.7,2.7-0.9,3.9
					c-0.3,1.3-0.5,2.5-0.6,3.6c-0.1,1.1-0.2,2.1-0.1,3c0.1,0.9,0.2,1.5,0.5,2C155.6,37.6,156,37.8,156.6,37.8z"/>
				<path d="M168,19.4c-0.3,0-0.6-0.1-0.8-0.4c-0.2-0.3-0.3-0.7-0.4-1.1c-0.1-0.5-0.1-1,0-1.5c0.1-0.5,0.2-1,0.3-1.5
					c-0.2,0.4-0.4,0.8-0.5,1.2c-0.2,0.4-0.4,0.8-0.6,1.1c-0.2,0.3-0.4,0.6-0.6,0.8c-0.2,0.2-0.4,0.4-0.6,0.4c-0.4,0.1-0.7,0-0.9-0.3
					c-0.2-0.3-0.3-0.6-0.3-1.1c0-0.4,0-0.9,0.1-1.5c0.1-0.6,0.2-1.1,0.4-1.5c0.1-0.3,0.2-0.5,0.3-0.6c0.1-0.1,0.2-0.1,0.3-0.1
					c0.1,0,0.2,0.1,0.2,0.2s0.1,0.3,0,0.4c-0.2,0.6-0.3,1.2-0.4,1.7c-0.1,0.6-0.2,1-0.2,1.4c0,0.4,0,0.7,0,0.9
					c0.1,0.2,0.2,0.3,0.4,0.2c0.2-0.1,0.4-0.3,0.7-0.6c0.2-0.4,0.5-0.8,0.7-1.2c0.2-0.5,0.5-0.9,0.7-1.5s0.5-1,0.7-1.4
					c0.1-0.2,0.2-0.3,0.3-0.3c0.1-0.1,0.2-0.1,0.3-0.1c0.1,0,0.2,0.1,0.2,0.1s0.1,0.2,0,0.3c-0.2,0.5-0.3,1.1-0.5,1.7
					c-0.2,0.6-0.3,1.2-0.4,1.8c-0.1,0.6-0.1,1-0.1,1.4c0,0.4,0.2,0.7,0.5,0.8c0.2,0.1,0.3,0,0.6-0.2c0.2-0.2,0.5-0.5,0.8-0.8
					c0.3-0.4,0.6-0.8,0.8-1.3c0.3-0.5,0.5-1,0.8-1.5c0-0.1,0.1-0.1,0.1-0.1c0,0,0.1,0,0.1,0.1c-0.2,0.5-0.5,1-0.7,1.5
					c-0.3,0.5-0.5,0.9-0.8,1.3c-0.3,0.4-0.5,0.7-0.8,0.9C168.5,19.3,168.3,19.4,168,19.4z"/>
				<path d="M172.9,19.3c0.6,0,1.2-0.4,1.7-1c0.6-0.6,1.2-1.6,1.9-2.9c0-0.1,0.1-0.1,0.1-0.1c0,0,0.1,0.1,0,0.1
					c-0.3,0.5-0.6,1-0.9,1.5c-0.3,0.5-0.6,0.9-0.9,1.3c-0.3,0.4-0.6,0.7-1,0.9c-0.3,0.2-0.7,0.3-1,0.3c-0.5,0-0.9-0.1-1.2-0.4
					s-0.5-0.6-0.6-1c-0.1-0.4-0.2-0.9-0.2-1.4c0-0.5,0-1.1,0.1-1.6c0.2-1,0.5-1.7,0.9-2.3c0.4-0.6,1-0.7,1.6-0.6
					c0.2,0.1,0.4,0.3,0.4,0.6s0,0.7-0.2,1c-0.1,0.4-0.4,0.7-0.7,0.9c-0.3,0.3-0.7,0.4-1.1,0.3c-0.1,0.5-0.2,1-0.2,1.5
					c0,0.5,0,0.9,0.1,1.3c0.1,0.4,0.2,0.7,0.4,1C172.3,19.2,172.6,19.3,172.9,19.3z M173.4,12.4c-0.3-0.1-0.5,0.1-0.8,0.5
					c-0.2,0.4-0.4,0.9-0.6,1.6c0,0.2-0.1,0.3-0.1,0.6c0.4,0.1,0.7,0,1-0.3c0.3-0.2,0.5-0.5,0.6-0.9c0.1-0.3,0.2-0.7,0.2-1
					C173.7,12.6,173.6,12.4,173.4,12.4z"/>
			</g>
		</g>
	</g>
</g>
<g>
	<g>
		<path class="st2" d="M97.6,31.5c-1.1-0.1-2-0.4-2.6-1.2c-0.6-0.7-1-1.6-1.2-2.7c-0.2-1.1-0.1-2.3,0.2-3.7c0.3-1.4,0.9-2.7,1.7-4
			c0.8-1.3,1.9-2.6,3.2-3.7c1.3-1.2,2.9-2.1,4.7-2.8c-1.2-0.3-2.1-0.7-2.7-1.4c-0.6-0.7-1-1.4-1.1-2.2c-0.2-0.8-0.1-1.7,0.1-2.6
			c0.2-0.9,0.5-1.7,0.8-2.4c-1.5,0.3-2.8,0.8-4,1.4c-1.2,0.7-2.1,1.4-2.9,2.3c-0.7,0.9-1.2,1.8-1.4,2.7c-0.2,0.9,0,1.8,0.6,2.5
			c0.1,0.1,0.2,0.1,0.2,0.2c0,0.1,0,0.1,0,0.2c0,0-0.1,0.1-0.2,0.1c-0.1,0-0.2-0.1-0.3-0.2c-0.6-1.1-0.8-2.2-0.5-3.2
			c0.3-1.1,0.9-2,1.8-2.9c0.9-0.9,1.9-1.6,3.1-2.2c1.2-0.6,2.4-0.9,3.5-1.1c0.5-1,1.1-1.8,1.8-2.4c0.7-0.7,1.3-1.2,2-1.5
			c0.7-0.3,1.3-0.5,1.9-0.6c0.6,0,1,0.1,1.4,0.5c0.4,0.4,0.5,0.8,0.5,1.2c0,0.5-0.3,0.9-0.8,1.3c-0.5,0.4-1.2,0.8-2.1,1.1
			c-1,0.3-2.2,0.5-3.6,0.5c-0.3,0.6-0.7,1.4-0.9,2.2c-0.3,0.9-0.4,1.7-0.4,2.6c0,0.8,0.3,1.6,0.7,2.3c0.5,0.7,1.3,1.1,2.5,1.3
			c0.1,0,0.2,0.1,0.2,0.2c0,0.1-0.2,0.2-0.4,0.3c-1.3,0.5-2.5,1.3-3.6,2.3c-1.1,1.1-2,2.3-2.7,3.6c-0.8,1.3-1.3,2.7-1.7,4.1
			s-0.6,2.7-0.5,3.8c0,1.1,0.3,2.1,0.8,2.8c0.5,0.7,1.3,1.1,2.4,1c0.9,0,1.8-0.3,2.6-0.9c0.8-0.6,1.6-1.4,2.3-2.3
			c0.7-1,1.3-2,1.8-3.1c0.5-1.1,0.8-2.3,1.1-3.3c0.2-1.1,0.3-2,0.2-2.8c-0.1-0.8-0.3-1.4-0.8-1.7c-0.3-0.2-0.8-0.2-1.3,0
			c-0.5,0.2-1,0.5-1.5,1c-0.5,0.5-1,1-1.5,1.7c-0.5,0.7-0.8,1.4-1.1,2.2c-0.3,0.8-0.4,1.6-0.3,2.4c0,0.8,0.3,1.6,0.8,2.4
			c0.1,0.1,0.1,0.2,0,0.3c-0.1,0-0.2,0-0.3-0.2c-0.5-0.9-0.8-1.7-0.8-2.6c0-0.9,0.1-1.7,0.4-2.6c0.3-0.8,0.7-1.6,1.2-2.2
			c0.5-0.7,1-1.2,1.6-1.7c0.6-0.4,1.1-0.7,1.6-0.8c0.5-0.1,0.9,0,1.3,0.2c0.6,0.5,1,1.2,1.2,2.1s0.2,1.9,0,3c-0.2,1.1-0.5,2.2-1,3.3
			c-0.5,1.1-1.1,2.1-1.9,3c-0.8,0.9-1.7,1.6-2.7,2.2C99.9,31.2,98.8,31.5,97.6,31.5z M107.5,0.5c-0.2-0.2-0.6-0.3-1-0.2
			C106,0.5,105.6,0.7,105,1c-0.5,0.3-1.1,0.8-1.7,1.3c-0.6,0.6-1,1.3-1.5,2.1c1.4,0,2.5-0.2,3.4-0.5c0.9-0.3,1.6-0.6,2-1
			c0.4-0.4,0.7-0.8,0.7-1.2C108,1.3,107.9,0.9,107.5,0.5z"/>
	</g>
	<g>
		<g>
			<path class="st3" d="M13.3,20.4c-1.5,0.1-2.8,0.5-3.7,0.9c-1,0.5-1.8,1.1-2.4,1.7c-0.6,0.7-1.1,1.3-1.5,2.1
				c-0.4,0.7-0.7,1.4-1,2.1c-0.2,0.5-0.3,0.9-0.5,1.2c-0.2,0.4-0.4,0.7-0.6,1c-0.2,0.3-0.5,0.5-0.7,0.6c-0.3,0.2-0.6,0.2-1,0.2
				c-0.1,0-0.2,0-0.3-0.1c-0.1,0-0.2-0.1-0.3-0.2c-1-0.4-1.4-1.5-1.2-3.1c0.1-0.8,0.3-1.7,0.5-2.6c0.2-1,0.6-2,1-3.2
				c0.5-1.3,1-2.6,1.6-4c0.6-1.4,1.3-2.8,2-4.2S6.7,10,7.4,8.7c0.7-1.3,1.4-2.6,2.1-3.7h0.2L20.3,30h-3L13.3,20.4z M8,8
				c-0.5,1-1.1,2.1-1.7,3.2c-0.6,1.1-1.1,2.2-1.6,3.4c-0.5,1.1-1,2.2-1.5,3.4c-0.5,1.1-0.9,2.2-1.3,3.2c-0.4,1.1-0.8,2.2-1,3.2
				c-0.2,1-0.4,1.8-0.5,2.6c0,0.7,0,1.4,0.2,1.9c0.2,0.5,0.4,0.8,0.9,1c0.1,0,0.2,0.1,0.3,0.1c0.1,0,0.1,0,0.2,0.1
				c0.7,0,1.2-0.2,1.6-0.7c0.4-0.5,0.7-1.2,1-2c0.3-0.7,0.6-1.4,1-2.1c0.4-0.8,0.9-1.5,1.5-2.1c0.6-0.7,1.4-1.3,2.4-1.8
				s2.3-0.8,3.8-1L8,8z"/>
			<path class="st3" d="M37,30H22.8V4.9h2.8v24.8h6c1.5,0,2.8-0.4,3.7-1.1c1-0.8,1.8-2,2.4-3.8L37,30z"/>
			<path class="st3" d="M40.3,4.9H43V30h-2.7V4.9z"/>
			<path class="st3" d="M54.9,5.6c-1.5,0.4-2.8,1.2-3.7,2.2c-1,1.1-1.7,2.3-2.2,3.6c-0.5,1.4-0.7,2.8-0.8,4.3c0,1.5,0.1,3,0.4,4.3
				c0.4,1.3,1,2.7,1.8,4c0.8,1.3,1.7,2.4,2.9,3.4c1.1,0.9,2.3,1.6,3.7,2c1.4,0.4,2.8,0.4,4.3,0c1-0.3,1.9-0.7,2.6-1.2
				c0.7-0.6,1.4-1.2,1.9-2s1-1.6,1.3-2.4c0.3-0.9,0.5-1.8,0.7-2.8v4.5c-0.8,1-1.7,1.8-2.8,2.5c-1.1,0.7-2.3,1.2-3.6,1.5
				c-1.7,0.5-3.4,0.6-5,0.4c-1.6-0.2-3.1-0.8-4.5-1.6c-1.4-0.8-2.6-1.9-3.6-3.2c-1-1.3-1.8-2.8-2.3-4.5c-0.4-1.7-0.5-3.3-0.3-5
				c0.2-1.7,0.8-3.2,1.6-4.6C48,9.8,49,8.6,50.3,7.6c1.3-1,2.8-1.8,4.5-2.2c1-0.3,1.9-0.4,2.8-0.5c0.9-0.1,1.6,0,2.4,0
				c0.7,0.1,1.4,0.2,2,0.4c0.6,0.2,1.1,0.4,1.6,0.7c1.1,0.6,2.1,1.3,2.8,2.3V12c-0.8-1.6-1.7-2.9-2.9-4c-0.5-0.4-1-0.9-1.6-1.3
				c-0.6-0.4-1.3-0.7-2-1c-0.7-0.2-1.5-0.4-2.3-0.4C56.7,5.2,55.8,5.3,54.9,5.6z"/>
			<path class="st3" d="M72.9,29.7h6c1.6,0,2.8-0.4,3.8-1.1c1-0.8,1.8-2,2.4-3.8L84.3,30H70.2V4.9h14.3v2.8
				c-0.6-0.6-1.2-1.1-1.8-1.4c-0.6-0.4-1.2-0.6-1.8-0.8c-0.7-0.2-1.4-0.3-2.2-0.3c-0.8,0-1.8-0.1-2.8-0.1h-2.9v5.8
				c0,1.2,0.2,2.2,0.5,3c0.3,0.8,0.8,1.4,1.4,1.8c0.6,0.4,1.4,0.7,2.3,0.9c0.9,0.2,2,0.2,3.2,0.2v2.8c-0.5-0.6-1.1-1.1-1.9-1.4
				c-0.7-0.3-1.5-0.7-2.2-1.1c-0.7-0.4-1.4-0.9-2-1.4s-1-1.4-1.3-2.4V29.7z"/>
		</g>
		<g>
			<path class="st3" d="M117,30h-2.7V4.9h2.7v8.4c0,1.2,0.2,2.1,0.7,2.6c0.5,0.5,1.1,0.9,1.8,1c0.7,0.1,1.6,0.2,2.5,0.1
				c0.9-0.1,1.8-0.1,2.6-0.1c0.8,0,1.6,0.1,2.3,0.4c0.7,0.3,1.2,0.8,1.5,1.6v-14h2.8V30h-2.8v-9.2c0-0.9-0.1-1.6-0.4-2.1
				c-0.3-0.5-0.6-0.9-1.1-1.1c-0.5-0.2-1-0.4-1.6-0.4c-0.6,0-1.2-0.1-1.9,0c-0.7,0-1.3,0.1-2,0.1c-0.7,0-1.3,0-1.9-0.1
				c-0.6-0.1-1.1-0.3-1.5-0.6c-0.5-0.3-0.8-0.7-1-1.3V30z"/>
			<path class="st3" d="M136.4,29.7h6c1.6,0,2.8-0.4,3.8-1.1c1-0.8,1.8-2,2.4-3.8l-0.8,5.3h-14.1V4.9H148v2.8
				c-0.6-0.6-1.2-1.1-1.8-1.4c-0.6-0.4-1.2-0.6-1.8-0.8c-0.7-0.2-1.4-0.3-2.2-0.3c-0.8,0-1.8-0.1-2.8-0.1h-2.9v5.8
				c0,1.2,0.2,2.2,0.5,3c0.3,0.8,0.8,1.4,1.4,1.8c0.6,0.4,1.4,0.7,2.3,0.9c0.9,0.2,2,0.2,3.2,0.2v2.8c-0.5-0.6-1.1-1.1-1.9-1.4
				c-0.7-0.3-1.5-0.7-2.2-1.1c-0.7-0.4-1.4-0.9-2-1.4c-0.6-0.6-1-1.4-1.3-2.4V29.7z"/>
			<path class="st3" d="M153.8,4.9c1,0,1.9,0.2,2.7,0.5c0.9,0.3,1.7,0.8,2.4,1.5c0.7,0.6,1.4,1.4,2.1,2.2c0.6,0.9,1.2,1.8,1.7,2.8
				c1.1,1.9,1.9,4.1,2.5,6.4c0.6,2.3,1,4.6,1.3,6.9V4.9h2.7V30h-2.7c0-1.4-0.1-2.9-0.2-4.5c-0.2-1.5-0.4-3.1-0.7-4.7
				c-0.3-1.6-0.7-3.1-1.2-4.6c-0.5-1.5-1.1-2.9-1.7-4.2c-0.5-1-1.1-1.9-1.7-2.8c-0.6-0.8-1.3-1.6-2-2.2c-0.7-0.6-1.5-1.1-2.4-1.4
				c-0.8-0.3-1.7-0.5-2.7-0.5V30h-2.7V4.9H153.8z"/>
			<path class="st3" d="M181.7,16.1c0.9,0.2,1.7,0.6,2.3,1.1c0.6,0.5,1.2,1.1,1.7,1.8c0.5,0.7,0.9,1.5,1.3,2.3
				c0.4,0.8,0.7,1.7,1.1,2.5c0.3,0.8,0.7,1.5,1,2.2c0.3,0.7,0.7,1.3,1.1,1.8c0.4,0.5,0.8,1,1.3,1.3c0.5,0.3,1,0.5,1.6,0.5V30
				c-1.6,0-2.9-0.2-3.9-0.6c-1-0.4-1.8-0.9-2.4-1.5c-0.6-0.6-1-1.4-1.3-2.2c-0.3-0.8-0.5-1.7-0.6-2.5c-0.2-0.9-0.3-1.7-0.4-2.5
				c-0.1-0.8-0.3-1.6-0.6-2.2c-0.3-0.6-0.7-1.2-1.3-1.5c-0.6-0.4-1.3-0.6-2.3-0.6c-1.8,0-3.2-0.9-4.3-2.6c-0.6-1-1.1-2.2-1.4-3.7V30
				h-2.8V4.9h6.2c1.3,0,2.5,0.1,3.7,0.3c1.2,0.2,2.2,0.5,3,1c0.9,0.4,1.5,1,2,1.7c0.5,0.7,0.7,1.6,0.7,2.6c0,0.9-0.2,1.6-0.5,2.3
				c-0.3,0.7-0.7,1.2-1.2,1.7c-0.5,0.5-1.1,0.8-1.8,1.1C183.2,15.9,182.5,16,181.7,16.1z M184.6,10.5c0-1-0.2-1.9-0.6-2.5
				s-0.9-1.2-1.5-1.6c-0.6-0.4-1.3-0.7-2.1-0.9c-0.8-0.2-1.6-0.3-2.5-0.3h-3.4v2.2c0,1.3,0.1,2.5,0.4,3.5c0.3,1,0.7,1.9,1.2,2.7
				c0.5,0.7,1.1,1.3,1.8,1.8c0.7,0.5,1.5,0.7,2.3,0.7h0.2c0.6,0,1.1-0.2,1.6-0.4c0.5-0.2,1-0.6,1.3-1s0.7-1,0.9-1.7
				C184.5,12.2,184.6,11.4,184.6,10.5z"/>
			<path class="st3" d="M195.6,4.9h2.7V30h-2.7V4.9z"/>
			<path class="st3" d="M214.3,30c-1.5,0.1-2.9,0-4.3-0.4c-1.4-0.4-2.7-1-3.9-1.8c-1.2-0.8-2.2-1.8-3.1-3c-0.9-1.2-1.5-2.6-1.9-4.1
				c-0.4-1.7-0.5-3.3-0.3-5c0.2-1.7,0.8-3.2,1.6-4.6c0.8-1.4,1.9-2.6,3.2-3.7c1.3-1,2.8-1.8,4.5-2.2c1.7-0.5,3.3-0.6,5-0.4
				c1.6,0.2,3.2,0.8,4.5,1.6c1.4,0.8,2.6,1.9,3.6,3.2c1,1.3,1.8,2.8,2.3,4.5c0.4,1.7,0.5,3.3,0.3,5s-0.7,3.2-1.5,4.6
				c-0.8,1.4-1.8,2.6-3.1,3.7c-1.3,1-2.7,1.8-4.3,2.3c-1.1,0.3-2.1,0.8-2.9,1.3c-0.8,0.6-1.6,1.2-2.3,1.8c-0.7,0.6-1.4,1.1-2,1.6
				c-0.7,0.5-1.3,0.7-2.1,0.8c-0.7,0-1.6-0.2-2.5-0.7s-2-1.4-3.3-2.7l0.2-0.2c0.7,0.6,1.3,1.1,1.9,1.4c0.6,0.3,1.3,0.4,1.9,0.4
				c0.6,0,1.3-0.1,1.9-0.3c0.6-0.2,1.3-0.5,2-0.8c0.7-0.3,1.4-0.7,2.2-1C212.7,30.6,213.5,30.3,214.3,30z M216.8,29.2
				c1.5-0.4,2.7-1.2,3.6-2.3c0.9-1.1,1.6-2.3,2.1-3.6c0.5-1.4,0.7-2.8,0.7-4.3c0-1.5-0.2-2.9-0.5-4.2c-0.4-1.3-0.9-2.7-1.7-4
				c-0.8-1.3-1.7-2.4-2.8-3.4s-2.3-1.6-3.7-2.1s-2.8-0.4-4.3-0.1c-1.5,0.4-2.8,1.2-3.7,2.2s-1.7,2.3-2.1,3.6
				c-0.5,1.4-0.7,2.8-0.8,4.4c0,1.5,0.1,3,0.5,4.3c0.4,1.3,0.9,2.6,1.7,3.8c0.7,1.3,1.6,2.3,2.7,3.3c1,0.9,2.2,1.6,3.5,2.1
				c1.3,0.5,2.6,0.6,4.1,0.3c0.2,0,0.4-0.1,0.5-0.1C216.5,29.3,216.6,29.3,216.8,29.2z"/>
			<path class="st3" d="M231.2,20.9c0,1.5,0.3,2.8,0.8,4.1c0.6,1.3,1.3,2.3,2.3,3.1s2.1,1.3,3.4,1.6s2.6,0.1,4-0.4
				c1.7-0.6,3-1.6,4-3.1c1-1.4,1.4-3.2,1.4-5.2c0-1.3,0-2.8-0.1-4.3c0-1.5-0.1-3.1-0.3-4.5s-0.4-2.9-0.7-4.1c-0.3-1.3-0.8-2.3-1.4-3
				h2.8v16c0,2-0.5,3.7-1.4,5.3c-1,1.5-2.4,2.6-4.2,3.3c-1.6,0.6-3.2,0.8-4.8,0.6c-1.6-0.2-3-0.6-4.3-1.4c-1.3-0.8-2.3-1.8-3.1-3.1
				c-0.8-1.3-1.2-2.9-1.2-4.6v-16h2.8V20.9z"/>
			<path class="st3" d="M252.7,29.7h6c1.6,0,2.8-0.4,3.8-1.1c1-0.8,1.8-2,2.4-3.8l-0.8,5.3H250V4.9h14.3v2.8
				c-0.6-0.6-1.2-1.1-1.8-1.4c-0.6-0.4-1.2-0.6-1.8-0.8c-0.7-0.2-1.4-0.3-2.2-0.3c-0.8,0-1.8-0.1-2.8-0.1h-2.9v5.8
				c0,1.2,0.2,2.2,0.5,3c0.3,0.8,0.8,1.4,1.4,1.8c0.6,0.4,1.4,0.7,2.3,0.9c0.9,0.2,2,0.2,3.2,0.2v2.8c-0.5-0.6-1.1-1.1-1.9-1.4
				c-0.7-0.3-1.5-0.7-2.2-1.1c-0.7-0.4-1.4-0.9-2-1.4c-0.6-0.6-1-1.4-1.3-2.4V29.7z"/>
		</g>
	</g>
</g>
</svg>
