<?xml version="1.0" encoding="utf-8"?>
<!-- Generator: Adobe Illustrator 27.4.1, SVG Export Plug-In . SVG Version: 6.00 Build 0)  -->
<svg version="1.1" id="Layer_1" xmlns="http://www.w3.org/2000/svg" xmlns:xlink="http://www.w3.org/1999/xlink" x="0px" y="0px"
	 viewBox="0 0 302.5 40" style="enable-background:new 0 0 302.5 40;" xml:space="preserve">
<style type="text/css">
	.st0{fill:#E9E2B5;}
	.st1{fill:#FAF8F3;}
	.st2{display:none;}
	.st3{display:inline;}
</style>
<g>
	<g>
		<path class="st0" d="M110.4,35.6c-1.3-0.1-2.3-0.5-3-1.3c-0.7-0.8-1.2-1.9-1.4-3.1c-0.2-1.2-0.1-2.6,0.3-4.2
			c0.4-1.5,1-3.1,1.9-4.6c0.9-1.5,2.1-2.9,3.6-4.2c1.5-1.3,3.2-2.4,5.3-3.2c-1.4-0.3-2.4-0.8-3.1-1.5c-0.7-0.7-1.1-1.6-1.3-2.5
			c-0.2-0.9-0.2-1.9,0.1-2.9c0.2-1,0.5-1.9,0.9-2.7c-1.6,0.3-3.1,0.9-4.5,1.6c-1.3,0.8-2.4,1.6-3.2,2.6c-0.8,1-1.3,2-1.5,3
			c-0.2,1,0,2,0.6,2.8c0.2,0.1,0.2,0.1,0.3,0.2c0,0.1,0,0.1,0,0.2c0,0-0.1,0.1-0.2,0.1s-0.2-0.1-0.3-0.2c-0.7-1.2-0.9-2.4-0.5-3.7
			c0.4-1.2,1-2.3,2-3.3c1-1,2.2-1.8,3.5-2.4c1.4-0.6,2.7-1.1,4-1.2c0.6-1.1,1.3-2,2-2.7c0.8-0.7,1.5-1.3,2.3-1.7
			c0.8-0.4,1.5-0.6,2.1-0.6c0.7,0,1.2,0.1,1.6,0.5c0.4,0.4,0.6,0.9,0.6,1.4c0,0.5-0.3,1-0.8,1.5c-0.5,0.5-1.3,0.9-2.4,1.2
			c-1.1,0.3-2.4,0.6-4.1,0.6c-0.4,0.7-0.7,1.5-1.1,2.5c-0.3,1-0.5,2-0.5,2.9c0,0.9,0.3,1.8,0.8,2.6c0.5,0.8,1.5,1.2,2.8,1.5
			c0.2,0,0.2,0.1,0.2,0.2c0,0.1-0.2,0.3-0.5,0.4c-1.5,0.6-2.8,1.5-4,2.7c-1.2,1.2-2.2,2.5-3.1,4c-0.9,1.5-1.5,3-2,4.6
			c-0.5,1.6-0.7,3-0.6,4.3c0,1.3,0.4,2.4,0.9,3.2c0.6,0.8,1.5,1.2,2.7,1.2c1,0,2-0.3,3-1c0.9-0.7,1.8-1.6,2.6-2.7
			c0.8-1.1,1.4-2.3,2-3.6c0.6-1.3,1-2.5,1.2-3.7c0.3-1.2,0.3-2.3,0.3-3.2c-0.1-0.9-0.4-1.6-0.9-1.9c-0.4-0.2-0.9-0.2-1.4,0
			c-0.6,0.2-1.1,0.6-1.7,1.1c-0.6,0.5-1.1,1.2-1.7,1.9c-0.5,0.7-0.9,1.6-1.2,2.4c-0.3,0.9-0.4,1.8-0.4,2.7c0,0.9,0.3,1.8,0.9,2.7
			c0.1,0.2,0.1,0.3,0,0.3c-0.1,0-0.2,0-0.3-0.2c-0.6-1-0.9-2-0.9-3c0-1,0.1-2,0.5-2.9c0.3-0.9,0.8-1.8,1.4-2.5
			c0.6-0.8,1.2-1.4,1.8-1.9c0.6-0.5,1.3-0.8,1.8-0.9c0.6-0.1,1.1-0.1,1.4,0.3c0.7,0.6,1.1,1.4,1.3,2.4c0.2,1,0.2,2.1,0,3.4
			c-0.2,1.2-0.6,2.5-1.1,3.7c-0.6,1.2-1.3,2.4-2.2,3.4c-0.9,1-1.9,1.9-3.1,2.5C113.1,35.2,111.8,35.6,110.4,35.6z M121.7,0.6
			c-0.3-0.2-0.6-0.3-1.1-0.2c-0.5,0.1-1.1,0.3-1.7,0.7c-0.6,0.4-1.2,0.9-1.9,1.5c-0.6,0.6-1.2,1.4-1.7,2.3c1.6,0,2.9-0.2,3.9-0.5
			c1-0.3,1.8-0.7,2.3-1.1c0.5-0.4,0.8-0.9,0.8-1.4C122.3,1.4,122.1,1,121.7,0.6z"/>
	</g>
	<g>
		<g>
			<path class="st1" d="M14.9,23c-1.7,0.2-3.1,0.5-4.2,1.1c-1.1,0.5-2,1.2-2.7,1.9c-0.7,0.7-1.3,1.5-1.7,2.4C6,29.2,5.6,30,5.3,30.7
				c-0.2,0.5-0.4,1-0.6,1.4c-0.2,0.4-0.4,0.8-0.7,1.1c-0.2,0.3-0.5,0.5-0.8,0.7c-0.3,0.2-0.7,0.2-1.2,0.2c-0.1,0-0.2,0-0.3-0.1
				c-0.1,0-0.2-0.1-0.3-0.2c-1.1-0.5-1.5-1.6-1.3-3.5c0.1-0.9,0.3-1.9,0.6-3c0.3-1.1,0.7-2.3,1.1-3.6c0.5-1.4,1.1-3,1.8-4.6
				c0.7-1.6,1.4-3.2,2.2-4.8s1.6-3.2,2.4-4.7C9,8.3,9.8,6.9,10.6,5.6h0.3l12,28.3h-3.4L14.9,23z M8.9,9c-0.6,1.2-1.2,2.4-1.9,3.7
				c-0.6,1.3-1.2,2.5-1.8,3.8C4.6,17.7,4,19,3.5,20.3c-0.5,1.3-1,2.5-1.4,3.6c-0.5,1.3-0.9,2.5-1.1,3.6c-0.3,1.1-0.5,2.1-0.6,2.9
				c-0.1,0.8,0,1.5,0.2,2.1c0.2,0.6,0.5,0.9,1,1.1c0.1,0.1,0.2,0.1,0.3,0.1c0.1,0,0.2,0,0.3,0.1c0.8,0.1,1.4-0.2,1.8-0.8
				c0.4-0.6,0.8-1.4,1.1-2.3c0.3-0.7,0.7-1.6,1.1-2.4c0.4-0.9,1-1.7,1.7-2.4s1.6-1.4,2.8-2s2.6-0.9,4.3-1.1L8.9,9z"/>
			<path class="st1" d="M41.7,33.9h-16V5.6h3.2v28h6.8c1.7,0,3.2-0.4,4.2-1.3c1.1-0.9,2-2.3,2.8-4.3L41.7,33.9z"/>
			<path class="st1" d="M45.4,5.6h3.1v28.3h-3.1V5.6z"/>
			<path class="st1" d="M61.9,6.3c-1.7,0.5-3.1,1.3-4.2,2.5c-1.1,1.2-1.9,2.6-2.5,4.1c-0.5,1.6-0.8,3.2-0.9,4.9
				c0,1.7,0.1,3.4,0.5,4.9c0.4,1.5,1.1,3,2,4.5c0.9,1.5,2,2.7,3.2,3.8c1.3,1.1,2.7,1.8,4.2,2.3c1.5,0.5,3.2,0.5,4.9,0
				c1.1-0.3,2.1-0.8,3-1.4c0.8-0.6,1.6-1.4,2.2-2.2c0.6-0.8,1.1-1.8,1.4-2.8c0.4-1,0.6-2.1,0.7-3.2V29c-0.9,1.1-1.9,2.1-3.2,2.9
				c-1.2,0.8-2.6,1.4-4,1.7c-1.9,0.6-3.8,0.7-5.7,0.4c-1.8-0.3-3.6-0.9-5.1-1.8c-1.6-0.9-2.9-2.1-4.1-3.6c-1.2-1.5-2-3.2-2.6-5.1
				c-0.5-1.9-0.6-3.8-0.3-5.7c0.3-1.9,0.9-3.6,1.8-5.2c0.9-1.6,2.1-3,3.6-4.1c1.5-1.2,3.2-2,5.1-2.5C62.9,5.8,64,5.6,65,5.5
				c1-0.1,1.9-0.1,2.7,0c0.8,0.1,1.6,0.3,2.3,0.5c0.7,0.2,1.3,0.5,1.8,0.7c1.3,0.7,2.4,1.5,3.2,2.6v4.2c-0.9-1.8-2-3.3-3.3-4.5
				c-0.5-0.5-1.1-1-1.8-1.5s-1.4-0.8-2.2-1.1C66.8,6.2,65.9,6,65,6C64,5.9,63,6,61.9,6.3z"/>
			<path class="st1" d="M82.3,33.6h6.8c1.8,0,3.2-0.4,4.3-1.3c1.1-0.9,2-2.3,2.7-4.3l-0.9,5.9H79.2V5.6h16.2v3.2
				c-0.7-0.7-1.4-1.2-2.1-1.6c-0.7-0.4-1.4-0.7-2.1-0.9c-0.7-0.2-1.6-0.3-2.5-0.4c-0.9-0.1-2-0.1-3.2-0.1h-3.3v6.5
				c0,1.4,0.2,2.5,0.5,3.4s0.9,1.5,1.6,2c0.7,0.5,1.6,0.8,2.6,1c1,0.2,2.2,0.3,3.6,0.3v3.2c-0.6-0.7-1.3-1.2-2.1-1.6
				c-0.8-0.4-1.7-0.8-2.5-1.2c-0.8-0.4-1.6-1-2.2-1.6c-0.7-0.6-1.2-1.6-1.5-2.7V33.6z"/>
		</g>
		<g>
			<path class="st1" d="M133.2,33.9h-3.1V5.6h3.1V15c0,1.4,0.3,2.3,0.8,2.9c0.5,0.6,1.2,1,2.1,1.1c0.8,0.2,1.8,0.2,2.8,0.1
				c1-0.1,2-0.1,3-0.1c1,0,1.8,0.2,2.6,0.5c0.8,0.3,1.3,0.9,1.7,1.8V5.6h3.1v28.3h-3.1V23.5c0-1-0.2-1.8-0.5-2.4
				c-0.3-0.6-0.7-1-1.3-1.2s-1.1-0.4-1.8-0.5c-0.7-0.1-1.4-0.1-2.1,0c-0.7,0-1.5,0.1-2.2,0.1c-0.8,0-1.5,0-2.1-0.1
				c-0.7-0.1-1.2-0.3-1.7-0.6c-0.5-0.3-0.9-0.8-1.2-1.5V33.9z"/>
			<path class="st1" d="M155.2,33.6h6.8c1.8,0,3.2-0.4,4.3-1.3c1.1-0.9,2-2.3,2.7-4.3l-0.9,5.9h-15.9V5.6h16.2v3.2
				c-0.7-0.7-1.4-1.2-2.1-1.6c-0.7-0.4-1.4-0.7-2.1-0.9c-0.7-0.2-1.6-0.3-2.5-0.4c-0.9-0.1-2-0.1-3.2-0.1h-3.3v6.5
				c0,1.4,0.2,2.5,0.5,3.4c0.3,0.9,0.9,1.5,1.6,2s1.6,0.8,2.6,1c1,0.2,2.2,0.3,3.6,0.3v3.2c-0.6-0.7-1.3-1.2-2.1-1.6
				c-0.8-0.4-1.7-0.8-2.5-1.2c-0.8-0.4-1.6-1-2.2-1.6c-0.7-0.6-1.2-1.6-1.5-2.7V33.6z"/>
			<path class="st1" d="M174.9,5.6c1.1,0,2.1,0.2,3.1,0.6c1,0.4,1.9,0.9,2.7,1.6c0.8,0.7,1.6,1.6,2.3,2.5c0.7,1,1.4,2,1.9,3.2
				c1.2,2.2,2.1,4.6,2.8,7.2c0.7,2.6,1.2,5.3,1.5,7.8v-23h3.1v28.3h-3.1c0-1.6-0.1-3.3-0.3-5c-0.2-1.8-0.5-3.5-0.8-5.3
				c-0.4-1.8-0.8-3.5-1.4-5.2c-0.5-1.7-1.2-3.3-1.9-4.7c-0.6-1.2-1.3-2.2-2-3.2c-0.7-0.9-1.5-1.8-2.3-2.5c-0.8-0.7-1.7-1.2-2.7-1.6
				c-0.9-0.4-2-0.6-3-0.6v28.1h-3.1V5.6H174.9z"/>
			<path class="st1" d="M206.4,18.3c1,0.2,1.9,0.7,2.6,1.2c0.7,0.6,1.4,1.3,1.9,2.1c0.5,0.8,1,1.7,1.4,2.6c0.4,1,0.8,1.9,1.2,2.8
				c0.4,0.9,0.8,1.7,1.1,2.5c0.4,0.8,0.8,1.5,1.3,2.1c0.5,0.6,0.9,1.1,1.5,1.4c0.5,0.3,1.1,0.5,1.8,0.5v0.3c-1.8,0-3.3-0.2-4.5-0.7
				c-1.1-0.4-2.1-1-2.7-1.7c-0.7-0.7-1.2-1.6-1.5-2.5c-0.3-0.9-0.5-1.9-0.7-2.8c-0.2-1-0.3-1.9-0.5-2.8c-0.2-0.9-0.4-1.8-0.7-2.5
				c-0.3-0.7-0.8-1.3-1.4-1.7c-0.6-0.4-1.5-0.7-2.6-0.7c-2,0-3.7-1-4.9-2.9c-0.7-1.1-1.2-2.5-1.6-4.1v22.5h-3.2V5.5h7.1
				c1.5,0,2.9,0.1,4.2,0.3c1.3,0.2,2.5,0.6,3.4,1.1c1,0.5,1.7,1.2,2.3,2c0.6,0.8,0.8,1.8,0.8,2.9c0,1-0.2,1.9-0.5,2.6
				c-0.3,0.7-0.8,1.4-1.4,1.9c-0.6,0.5-1.3,0.9-2,1.2C208.1,17.9,207.3,18.1,206.4,18.3z M209.7,11.9c0-1.1-0.2-2.1-0.6-2.9
				c-0.4-0.8-1-1.4-1.7-1.8c-0.7-0.5-1.5-0.8-2.4-1c-0.9-0.2-1.9-0.3-2.8-0.3h-3.9v2.5c0,1.5,0.2,2.8,0.5,3.9c0.3,1.1,0.8,2.2,1.3,3
				c0.6,0.8,1.2,1.5,2,2c0.8,0.5,1.7,0.8,2.6,0.8h0.3c0.6,0,1.3-0.2,1.8-0.4c0.6-0.3,1.1-0.7,1.5-1.2c0.4-0.5,0.8-1.2,1-1.9
				C209.6,13.8,209.7,12.9,209.7,11.9z"/>
			<path class="st1" d="M222.1,5.6h3.1v28.3h-3.1V5.6z"/>
			<path class="st1" d="M243.3,33.9c-1.7,0.1-3.3,0-4.9-0.5c-1.6-0.5-3-1.1-4.4-2.1c-1.3-0.9-2.5-2.1-3.5-3.4
				c-1-1.4-1.7-2.9-2.2-4.7c-0.5-1.9-0.6-3.7-0.3-5.6s0.9-3.6,1.8-5.2c0.9-1.6,2.1-3,3.6-4.1c1.5-1.2,3.2-2,5.1-2.5
				c1.9-0.5,3.8-0.7,5.6-0.4c1.9,0.3,3.6,0.9,5.1,1.8c1.6,0.9,2.9,2.1,4.1,3.6c1.2,1.5,2,3.2,2.5,5.1c0.5,1.9,0.6,3.8,0.3,5.6
				s-0.8,3.6-1.7,5.2c-0.9,1.6-2,3-3.5,4.1c-1.4,1.2-3.1,2-4.9,2.6c-1.3,0.3-2.4,0.9-3.3,1.5c-0.9,0.7-1.8,1.3-2.6,2
				c-0.8,0.7-1.5,1.3-2.3,1.8c-0.7,0.5-1.5,0.8-2.3,0.9c-0.8,0.1-1.8-0.2-2.8-0.8s-2.3-1.6-3.7-3.1l0.2-0.2c0.7,0.7,1.5,1.2,2.2,1.5
				c0.7,0.3,1.4,0.5,2.1,0.5s1.4-0.1,2.2-0.4c0.7-0.3,1.5-0.6,2.3-0.9c0.8-0.4,1.6-0.7,2.5-1.2C241.4,34.6,242.4,34.3,243.3,33.9z
				 M246.1,33.1c1.7-0.5,3-1.4,4.1-2.5c1.1-1.2,1.8-2.6,2.4-4.1c0.5-1.6,0.8-3.2,0.8-4.9c0-1.7-0.2-3.3-0.6-4.8
				c-0.4-1.5-1-3-1.9-4.5c-0.9-1.5-1.9-2.7-3.2-3.8s-2.6-1.8-4.2-2.3s-3.2-0.5-4.9-0.1c-1.7,0.5-3.1,1.3-4.2,2.5
				c-1.1,1.2-1.9,2.6-2.4,4.1c-0.5,1.6-0.8,3.2-0.9,4.9c0,1.7,0.1,3.4,0.5,4.9c0.4,1.5,1,2.9,1.9,4.3c0.8,1.4,1.8,2.7,3,3.7
				c1.2,1.1,2.5,1.9,3.9,2.4c1.4,0.5,3,0.7,4.6,0.4c0.2-0.1,0.4-0.1,0.6-0.2C245.8,33.1,245.9,33.1,246.1,33.1z"/>
			<path class="st1" d="M262.4,23.6c0,1.7,0.3,3.2,0.9,4.6c0.6,1.4,1.5,2.6,2.6,3.5s2.3,1.5,3.8,1.8c1.4,0.3,3,0.1,4.6-0.5
				c1.9-0.7,3.4-1.8,4.5-3.5c1.1-1.6,1.6-3.6,1.6-5.9c0-1.5,0-3.1-0.1-4.9c0-1.8-0.2-3.5-0.3-5.1c-0.2-1.7-0.5-3.2-0.8-4.7
				c-0.4-1.4-0.9-2.6-1.5-3.4h3.1v18.1c0,2.2-0.5,4.2-1.6,5.9c-1.1,1.7-2.7,3-4.8,3.7c-1.8,0.6-3.6,0.9-5.4,0.7
				c-1.8-0.2-3.4-0.7-4.9-1.6c-1.4-0.9-2.6-2.1-3.5-3.6c-0.9-1.5-1.3-3.2-1.3-5.2V5.5h3.2V23.6z"/>
			<path class="st1" d="M286.7,33.6h6.8c1.8,0,3.2-0.4,4.3-1.3c1.1-0.9,2-2.3,2.7-4.3l-0.9,5.9h-15.9V5.6h16.2v3.2
				c-0.7-0.7-1.4-1.2-2.1-1.6c-0.7-0.4-1.3-0.7-2.1-0.9c-0.7-0.2-1.6-0.3-2.5-0.4c-0.9-0.1-2-0.1-3.2-0.1h-3.3v6.5
				c0,1.4,0.2,2.5,0.5,3.4c0.3,0.9,0.9,1.5,1.6,2s1.6,0.8,2.6,1c1,0.2,2.2,0.3,3.6,0.3v3.2c-0.6-0.7-1.3-1.2-2.1-1.6
				c-0.8-0.4-1.7-0.8-2.5-1.2c-0.8-0.4-1.6-1-2.3-1.6c-0.7-0.6-1.2-1.6-1.5-2.7V33.6z"/>
		</g>
	</g>
</g>
<g class="st2">
	<g class="st3">
		<g>
			<path class="st0" d="M72.5,20.4c-0.2,0.3-0.5,0.6-0.7,0.9c-0.3,0.3-0.5,0.6-0.8,0.8c-0.3,0.2-0.6,0.5-1,0.6
				c-0.4,0.2-0.7,0.2-1.1,0.2c-0.8,0-1.5-0.1-2.1-0.4c-0.7-0.3-1.2-0.6-1.7-1c-0.8,0.6-1.6,1.1-2.4,1.6c-0.8,0.5-1.7,0.9-2.5,1.1
				c-0.8,0.3-1.7,0.4-2.5,0.3c-0.8,0-1.7-0.3-2.5-0.8c-0.5-0.3-0.9-0.8-1.2-1.3c-0.3-0.5-0.5-1.1-0.6-1.7s-0.1-1.3,0.1-1.9
				c0.1-0.7,0.4-1.3,0.8-1.9c0.4-0.6,0.9-1.2,1.6-1.7c0.6-0.5,1.4-0.9,2.3-1.2c-0.7-1-1.2-1.9-1.4-2.9c-0.2-1-0.2-1.8,0-2.6
				c0.2-0.8,0.6-1.4,1.2-1.9c0.6-0.5,1.3-0.7,2.3-0.7c0.6,0,1.2,0.1,1.7,0.4c0.5,0.3,0.9,0.6,1.2,1.1c0.3,0.4,0.5,0.9,0.6,1.5
				c0.1,0.5,0,1.1-0.2,1.7c-0.2,0.6-0.6,1.1-1.1,1.6c-0.5,0.5-1.3,0.9-2.2,1.3c0.8,1.1,1.7,2.2,2.7,3.5c1,1.2,2.1,2.4,3.3,3.6
				c0.6-0.5,1.2-1.1,1.6-1.6c0.4-0.6,0.7-1,0.9-1.3l0.1,0.1c-0.2,0.4-0.6,0.9-1,1.4c-0.4,0.5-0.9,1.1-1.5,1.6
				c0.5,0.3,0.9,0.6,1.3,0.9c0.4,0.3,0.9,0.5,1.4,0.7c0.7,0.2,1.3,0.1,1.9-0.2C71.3,21.6,71.9,21.1,72.5,20.4L72.5,20.4z M58.1,14.1
				c-0.8,0.3-1.6,0.7-2.2,1.3c-0.6,0.6-1.1,1.2-1.3,1.9c-0.3,0.7-0.4,1.4-0.3,2.2c0.1,0.8,0.5,1.6,1.1,2.3c0.6,0.7,1.2,1.1,2,1.4
				c0.7,0.3,1.5,0.3,2.3,0.3c0.8-0.1,1.7-0.3,2.5-0.6c0.9-0.4,1.7-0.8,2.6-1.4c-0.5-0.4-1.1-0.9-1.7-1.6c-0.6-0.6-1.2-1.3-1.9-2
				c-0.6-0.7-1.2-1.4-1.8-2C59,15.1,58.5,14.6,58.1,14.1z M60,6.1c-0.7,0-1.2,0.1-1.6,0.4c-0.4,0.3-0.7,0.7-0.7,1.3
				c-0.1,0.6,0.1,1.3,0.4,2.2c0.4,0.9,1,1.9,1.9,3.1c0.5-0.3,1-0.7,1.4-1.2c0.4-0.5,0.6-1,0.8-1.5c0.2-0.5,0.3-1.1,0.3-1.6
				c0-0.5-0.1-1-0.3-1.4c-0.2-0.4-0.4-0.8-0.8-1C61,6.2,60.6,6.1,60,6.1z"/>
		</g>
	</g>
	<g class="st3">
		<g>
			<g>
				<path class="st1" d="M24.1,10.8c0.3-1.5,0.6-2.8,1-4s0.7-2.2,1.1-2.9c0.4-0.8,0.8-1.4,1.3-1.7c0.4-0.4,0.9-0.5,1.3-0.5
					c0.4,0.1,0.6,0.3,0.7,0.7c0,0.4-0.1,1-0.4,1.7c-0.3,0.7-0.8,1.5-1.4,2.5c-0.6,1-1.4,2-2.3,3.2c-0.3,1.4-0.5,3-0.7,4.7
					c-0.2,1.8-0.3,3.5-0.4,5.3c0.3-0.1,0.6-0.3,0.9-0.4c0.3-0.1,0.6-0.3,0.8-0.4c0.2-0.2,0.5-0.3,0.6-0.5c0.2-0.2,0.3-0.4,0.4-0.7
					c-0.1-0.1-0.1-0.1-0.1-0.1c0,0,0-0.1,0.1-0.1c0,0,0.1,0,0.1,0c0,0,0.1,0.1,0.1,0.2c-0.1,0.3-0.2,0.6-0.4,0.8
					c-0.2,0.2-0.4,0.4-0.7,0.6c-0.3,0.2-0.5,0.3-0.9,0.5c-0.3,0.1-0.6,0.3-1,0.4c-0.1,1.5-0.1,3-0.1,4.3c0,1.3,0,2.5,0.1,3.5
					c0.1,1,0.2,1.9,0.4,2.5s0.4,1.1,0.8,1.3c0.3,0.2,0.6,0.2,0.9,0c0.3-0.2,0.5-0.5,0.7-0.8c0.2-0.4,0.4-0.7,0.5-1.1
					c0.1-0.4,0.2-0.7,0.3-0.9c-0.1,0-0.1-0.1-0.1-0.1c0,0,0-0.1,0.1-0.1c0,0,0.1,0,0.1,0c0,0,0,0.1,0,0.2c-0.1,0.6-0.2,1.1-0.4,1.6
					c-0.2,0.4-0.4,0.8-0.7,1.1c-0.2,0.3-0.5,0.4-0.7,0.5s-0.5,0.1-0.7-0.1c-0.9-0.5-1.4-1.7-1.8-3.7c-0.3-2-0.4-4.6-0.3-7.9
					c-0.8,0.2-1.5,0.4-2.3,0.5c-0.8,0.1-1.7,0.2-2.7,0.2c-1.1,1.7-2.3,3.3-3.5,4.9s-2.4,2.9-3.6,4c-1.2,1.1-2.4,2-3.6,2.6
					C6.2,33,5,33.1,4,32.9c-0.8-0.2-1.6-0.6-2.2-1.2c-0.6-0.6-1.1-1.3-1.4-2.2C0.1,28.7,0,27.8,0,26.8s0.2-2,0.6-3
					c0.4-1,1-2,1.7-2.9c0.8-0.9,1.8-1.7,3-2.3c0.8-0.4,1.5-0.6,2-0.6c0.6,0,1,0.2,1.3,0.5c0.3,0.3,0.6,0.7,0.7,1.2
					c0.1,0.5,0.1,1,0,1.6c1.2-0.2,2.6-0.3,4.1-0.3c1.5,0,3-0.1,4.5-0.2c1-1.4,1.9-3,2.9-4.6C21.8,14.5,22.9,12.7,24.1,10.8z M4,32.8
					c1.8,0.4,3.9-0.4,6.2-2.5c2.3-2,4.8-5.2,7.7-9.4c-1.5,0.1-3,0.1-4.5,0.1c-1.5,0-2.8,0.1-4.1,0.3c-0.2,0.8-0.5,1.4-0.9,1.9
					c-0.4,0.5-0.8,0.9-1.2,1.1c-0.4,0.2-0.8,0.4-1.2,0.4c-0.4,0-0.7,0-0.9-0.1c-0.2-0.1-0.3-0.3-0.4-0.5c-0.1-0.3-0.1-0.6,0.1-1
					c0.2-0.4,0.6-0.7,1.3-1.1c0.7-0.4,1.7-0.7,3.2-0.9c0.1-0.5,0.1-1,0-1.5c-0.1-0.5-0.3-0.9-0.7-1.2c-0.3-0.3-0.8-0.4-1.4-0.4
					c-0.6,0-1.3,0.3-2.1,0.7c-1.2,0.7-2.2,1.5-3,2.4S1,23.2,0.6,24.2c-0.3,1-0.5,2-0.5,2.9c0,1,0.2,1.8,0.5,2.6
					c0.3,0.8,0.8,1.5,1.3,2C2.6,32.3,3.2,32.6,4,32.8z M5.1,24.6c0.1,0.1,0.3,0.1,0.7,0.1c0.3,0,0.7-0.2,1.2-0.4
					c0.4-0.2,0.9-0.6,1.3-1c0.4-0.5,0.8-1.1,1-1.9c-1.2,0.2-2.1,0.4-2.7,0.7c-0.6,0.3-1.1,0.6-1.4,0.9S4.7,23.7,4.8,24
					S4.9,24.5,5.1,24.6z M24,11.2c-0.9,1.4-1.7,2.9-2.7,4.6c-0.9,1.7-2,3.3-3.1,5c1-0.1,1.8-0.1,2.6-0.3c0.8-0.1,1.5-0.3,2.3-0.5
					c0.1-1.6,0.2-3.1,0.3-4.7C23.6,13.8,23.8,12.4,24,11.2z M25.3,9.3c0.8-1,1.4-1.9,2-2.8c0.6-0.9,1.1-1.7,1.4-2.4
					c0.3-0.7,0.5-1.3,0.5-1.7c0-0.4-0.2-0.6-0.6-0.7c-0.5,0-1.1,0.6-1.7,1.8C26.4,4.8,25.9,6.7,25.3,9.3z"/>
				<path class="st1" d="M31.7,23.4c0.2,0,0.5-0.1,0.9-0.3s0.7-0.5,1-0.9c0.4-0.4,0.7-0.8,1.1-1.4c0.4-0.5,0.8-1.1,1.2-1.8
					c0-0.1,0.1-0.1,0.1-0.1c0,0,0,0,0,0.2c-0.2,0.4-0.5,0.8-0.8,1.3c-0.3,0.5-0.7,1-1.1,1.5c-0.4,0.5-0.8,0.9-1.2,1.2
					c-0.4,0.3-0.8,0.5-1.1,0.4c-0.6-0.1-1-0.4-1.2-1S30,21.3,30,20.5c0-0.8,0-1.7,0.1-2.6c0.1-0.9,0.3-1.8,0.4-2.6
					c0.4-2.1,1-4,1.6-5.8c0.6-1.7,1.3-3.2,2-4.4c0.7-1.2,1.4-2.1,2.1-2.8c0.7-0.6,1.4-0.9,2-0.7c0.5,0.1,0.8,0.5,0.9,1.2
					c0.1,0.7,0,1.5-0.3,2.5c-0.3,1-0.7,2.1-1.2,3.3c-0.5,1.2-1.2,2.4-1.9,3.6c-0.7,1.2-1.5,2.4-2.3,3.5c-0.8,1.1-1.6,2.1-2.4,2.9
					c-0.2,1.6-0.2,2.8-0.1,3.6C31.1,22.9,31.3,23.3,31.7,23.4z M38.1,1.7c-0.4-0.1-0.8,0-1.3,0.4c-0.5,0.4-0.9,0.9-1.4,1.7
					c-0.5,0.7-0.9,1.6-1.4,2.7c-0.5,1-0.9,2.2-1.3,3.5c-0.4,1.3-0.8,2.6-1.1,4c-0.3,1.4-0.6,2.9-0.7,4.4c0.8-0.8,1.5-1.7,2.3-2.8
					c0.8-1.1,1.5-2.2,2.2-3.4c0.7-1.2,1.3-2.4,1.8-3.6c0.5-1.2,0.9-2.3,1.2-3.2c0.3-1,0.4-1.8,0.3-2.4S38.6,1.8,38.1,1.7z"/>
				<path class="st1" d="M36.5,24.2c-0.7,0-1.1-0.5-1.2-1.4c-0.1-0.9,0-2.2,0.4-3.7c0.2-0.5,0.4-0.8,0.7-0.8c0.2,0,0.3,0.3,0.2,0.8
					c-0.1,0.6-0.3,1.1-0.4,1.7c-0.1,0.6-0.2,1.1-0.3,1.6c-0.1,0.5,0,0.9,0,1.2c0.1,0.3,0.3,0.5,0.6,0.5c0.2,0,0.4-0.1,0.6-0.4
					c0.2-0.3,0.5-0.6,0.8-1.1c0.3-0.5,0.6-1,0.9-1.6c0.3-0.6,0.6-1.2,1-1.9c0-0.1,0.1-0.1,0.1-0.1C40,19,40,19,40,19
					c-0.4,0.7-0.7,1.4-1,2.1c-0.3,0.6-0.7,1.2-1,1.6c-0.3,0.5-0.6,0.8-0.8,1.1C36.9,24,36.7,24.2,36.5,24.2z M36.5,16.1
					c0.1-0.2,0.1-0.3,0.2-0.3c0.1-0.1,0.2-0.1,0.3-0.1c0.1,0,0.2,0.1,0.2,0.1c0.1,0.1,0.1,0.2,0,0.3c-0.1,0.2-0.1,0.3-0.2,0.4
					c-0.1,0.1-0.2,0.1-0.3,0.1c-0.1,0-0.2-0.1-0.2-0.2C36.4,16.4,36.4,16.3,36.5,16.1z"/>
				<path class="st1" d="M42.5,17.8c0,0.1-0.1,0.1-0.1,0.1c0,0-0.1,0,0-0.1c0.3-0.5,0.5-1,0.4-1.4c0-0.4-0.2-0.7-0.5-0.8
					c-0.3-0.1-0.5,0-0.8,0.3c-0.2,0.3-0.4,0.7-0.6,1.2c-0.2,0.5-0.3,1.1-0.3,1.7c-0.1,0.6-0.1,1.2-0.1,1.8c0,0.6,0.1,1,0.3,1.4
					c0.1,0.4,0.4,0.6,0.6,0.7c0.3,0,0.8-0.3,1.4-0.9c0.6-0.6,1.2-1.6,1.9-2.9c0-0.1,0.1-0.1,0.1-0.1c0,0,0.1,0.1,0.1,0.1
					c-0.7,1.5-1.4,2.6-2,3.2c-0.6,0.6-1.1,0.9-1.5,0.8c-0.5,0-0.8-0.2-1.1-0.6c-0.2-0.3-0.4-0.7-0.5-1.2c-0.1-0.5-0.1-0.9-0.1-1.4
					c0-0.5,0.1-0.9,0.1-1.3c0.2-1.1,0.6-2,1-2.6c0.5-0.6,1-0.8,1.6-0.5c0.3,0.1,0.5,0.4,0.5,0.9C43,16.8,42.8,17.3,42.5,17.8z"/>
				<path class="st1" d="M46.6,22.9c0.6,0,1.2-0.4,1.7-1c0.6-0.6,1.2-1.6,1.9-2.9c0-0.1,0.1-0.1,0.1-0.1c0,0,0.1,0.1,0,0.1
					c-0.3,0.5-0.6,1-0.9,1.5c-0.3,0.5-0.6,0.9-0.9,1.3c-0.3,0.4-0.6,0.7-1,0.9c-0.3,0.2-0.7,0.3-1,0.3c-0.5,0-0.9-0.1-1.2-0.4
					s-0.5-0.6-0.6-1c-0.1-0.4-0.2-0.9-0.2-1.4c0-0.5,0-1.1,0.1-1.6c0.2-1,0.5-1.7,0.9-2.3c0.4-0.6,1-0.7,1.6-0.6
					c0.2,0.1,0.4,0.3,0.4,0.6c0,0.3,0,0.7-0.2,1s-0.4,0.7-0.7,0.9c-0.3,0.3-0.7,0.4-1.1,0.3c-0.1,0.5-0.2,1-0.2,1.5
					c0,0.5,0,0.9,0.1,1.3c0.1,0.4,0.2,0.7,0.4,1C46.1,22.8,46.3,22.9,46.6,22.9z M47.1,16c-0.3-0.1-0.5,0.1-0.8,0.5
					c-0.2,0.4-0.4,0.9-0.6,1.6c0,0.2-0.1,0.3-0.1,0.6c0.4,0.1,0.7,0,1-0.3s0.5-0.5,0.6-0.9c0.1-0.3,0.2-0.7,0.2-1
					C47.4,16.2,47.3,16,47.1,16z"/>
			</g>
		</g>
		<g>
			<g>
				<path class="st1" d="M104.1,0.1c-0.5,0-0.9,0.3-1.5,1.2c-0.5,0.8-1,1.9-1.5,3.3c-0.5,1.4-1,2.9-1.4,4.7
					c-0.4,1.8-0.8,3.6-1.2,5.5c-0.4,1.9-0.6,3.7-0.9,5.5c-0.2,1.8-0.3,3.4-0.4,4.9c0,1.5,0,2.7,0.2,3.6c0.2,0.9,0.5,1.5,1,1.6
					c0.1,0,0.3,0,0.4,0c0.1-0.1,0.2-0.2,0.3-0.3c0.1-0.1,0.2-0.2,0.2-0.3c0.1-0.1,0.1-0.2,0.1-0.3c-0.1-0.1-0.1-0.1,0-0.2
					c0.1-0.1,0.1,0,0.1,0.2c0,0.1,0,0.2-0.1,0.3c0,0.1-0.1,0.3-0.2,0.4c-0.1,0.1-0.2,0.2-0.4,0.3c-0.1,0.1-0.3,0.1-0.5,0.1
					c-0.4,0-0.8-0.3-1.1-0.7c-0.3-0.4-0.5-1-0.6-1.8c-0.1-0.8-0.2-1.6-0.2-2.6c0-1,0-2.1,0.1-3.3c0.1-1.2,0.2-2.4,0.3-3.7
					c0.2-1.3,0.3-2.5,0.5-3.8c-0.5-0.1-1-0.1-1.6-0.2c-0.6-0.1-1.3-0.1-1.9-0.1c-0.7,0-1.3,0-2,0c-0.7,0-1.3,0.1-1.9,0.1
					c-0.2,1-0.3,2.1-0.5,3.1c-0.2,1.1-0.4,2.2-0.6,3.3c-0.6,3.1-1.7,5.4-3.1,7.1c-1.4,1.7-3.2,2.5-5.3,2.5c-1.2,0-2.3-0.3-3.2-0.8
					c-0.9-0.6-1.6-1.3-2.2-2.2c-0.6-0.9-0.9-1.9-1.1-3c-0.2-1.1-0.2-2.3,0-3.4c0.2-1.2,0.6-2.3,1.1-3.4c0.6-1.1,1.4-2.1,2.4-3
					c0.7-0.6,1.4-1.1,2.1-1.3c0.7-0.2,1.3-0.3,1.8-0.2c0.6,0.1,1,0.3,1.5,0.6c0.4,0.3,0.7,0.7,1,1.2c0.2,0.5,0.3,1,0.3,1.5
					c0,0.6-0.1,1.1-0.4,1.7c-0.2,0.4-0.4,0.7-0.8,1.1c-0.3,0.4-0.7,0.7-1.1,1c-0.4,0.3-0.9,0.6-1.3,0.8c-0.5,0.2-0.9,0.3-1.4,0.4
					c-0.1,0-0.2,0-0.2,0c0,0,0,0,0-0.1c0,0,0.1,0,0.1,0c0.1,0,0.1,0,0.1,0c0.9-0.2,1.7-0.5,2.4-1c0.7-0.5,1.3-1.1,1.7-1.7
					c0.4-0.5,0.6-1.1,0.6-1.7c0.1-0.6,0-1.1-0.2-1.6c-0.2-0.5-0.5-0.9-0.9-1.3c-0.4-0.4-0.9-0.6-1.4-0.7c-0.6-0.1-1.2-0.1-1.8,0.1
					c-0.7,0.2-1.4,0.6-2.1,1.2c-1,0.9-1.8,1.9-2.4,3c-0.6,1.1-1,2.2-1.1,3.4c-0.2,1.2-0.2,2.3,0,3.4c0.2,1.1,0.6,2.1,1.1,3
					c0.6,0.9,1.3,1.6,2.2,2.1c0.9,0.5,1.9,0.8,3.1,0.8c0.8,0,1.6-0.1,2.4-0.6c0.8-0.4,1.5-1,2.1-1.9c0.6-0.8,1.2-1.9,1.8-3.1
					c0.5-1.2,1-2.7,1.3-4.3c0.2-1,0.4-2,0.5-3c0.1-1,0.3-2,0.4-3.1c-0.5,0.1-0.9,0.3-1.2,0.5s-0.4,0.5-0.4,0.8c0,0.2,0,0.2-0.1,0.2
					c-0.1,0-0.1-0.1-0.2-0.2c0-0.4,0.2-0.7,0.5-0.9c0.3-0.2,0.8-0.4,1.3-0.5c0.2-1.7,0.5-3.5,0.9-5.2c0.3-1.7,0.9-3.5,1.6-5.2
					c-2.8-0.8-5.2-1.1-7.2-1c-2,0.1-3.7,0.5-5.1,1.2c-1.4,0.7-2.5,1.6-3.3,2.7c-0.8,1.1-1.4,2.2-1.7,3.4c-0.3,1.2-0.4,2.3-0.3,3.3
					c0.1,1.1,0.4,1.9,0.8,2.6c0.2,0,0.2,0.1,0.1,0.2c-0.1,0.1-0.2,0-0.3-0.2c-0.3-0.5-0.6-1.1-0.7-1.9c-0.1-0.8-0.2-1.6-0.1-2.4
					c0.1-0.9,0.3-1.7,0.7-2.6c0.3-0.9,0.8-1.7,1.5-2.5c0.6-0.8,1.4-1.5,2.4-2.1c0.9-0.6,2.1-1.1,3.4-1.4C82.9,3,84.4,2.9,86,3
					c1.7,0.1,3.5,0.4,5.6,1c0.3-0.6,0.6-1.2,0.9-1.8c0.3-0.5,0.7-0.9,1.1-1.3c0.4-0.3,0.8-0.6,1.1-0.7c0.4-0.1,0.7-0.1,1.1,0
					c0.4,0.2,0.6,0.6,0.6,1.1c0.1,0.5,0,1-0.3,1.5c-0.3,0.5-0.7,0.9-1.4,1.2c-0.6,0.3-1.5,0.4-2.5,0.2c-0.6,1.8-1.1,3.4-1.4,5.1
					c-0.3,1.6-0.6,3.3-0.8,5c0.6-0.1,1.2-0.1,1.9-0.1c0.7,0,1.3,0,2,0c0.7,0,1.3,0.1,1.9,0.1c0.6,0,1.2,0.1,1.7,0.2
					c0.2-1.1,0.5-2.3,0.7-3.5c0.3-1.2,0.6-2.3,0.9-3.4c0.3-1.1,0.7-2.1,1.1-3.1c0.4-0.9,0.8-1.8,1.2-2.5c0.4-0.7,0.8-1.2,1.3-1.6
					c0.4-0.4,0.9-0.5,1.3-0.5c0.3,0.1,0.5,0.2,0.6,0.5c0.1,0.3,0.1,0.6,0,0.9c-0.1,0.3-0.3,0.7-0.5,1c-0.3,0.3-0.5,0.6-0.9,0.8
					c-0.1,0.1-0.2,0.1-0.2,0c0,0,0.1-0.1,0.2-0.2c0.3-0.2,0.5-0.4,0.8-0.7c0.2-0.3,0.4-0.6,0.5-0.9c0.1-0.3,0.1-0.6,0.1-0.8
					S104.3,0.2,104.1,0.1z M92.4,4.1c0.7,0.1,1.3,0.1,1.8,0c0.5-0.1,0.9-0.3,1.2-0.5c0.3-0.2,0.5-0.5,0.7-0.8c0.2-0.3,0.2-0.6,0.3-1
					c0-0.3,0-0.6-0.1-0.8c-0.1-0.2-0.2-0.4-0.4-0.5c-0.1-0.1-0.3-0.1-0.6,0c-0.2,0.1-0.5,0.2-0.8,0.5c-0.3,0.3-0.6,0.7-1,1.2
					C93.1,2.5,92.7,3.2,92.4,4.1z"/>
				<path class="st1" d="M103.7,21.2c0.6,0,1.2-0.4,1.7-1c0.6-0.6,1.2-1.6,1.9-2.9c0-0.1,0.1-0.1,0.1-0.1c0,0,0.1,0.1,0,0.1
					c-0.3,0.5-0.6,1-0.9,1.5c-0.3,0.5-0.6,0.9-0.9,1.3c-0.3,0.4-0.6,0.7-1,0.9c-0.3,0.2-0.7,0.3-1,0.3c-0.5,0-0.9-0.1-1.2-0.4
					c-0.3-0.3-0.5-0.6-0.6-1c-0.1-0.4-0.2-0.9-0.2-1.4c0-0.5,0-1.1,0.1-1.6c0.2-1,0.5-1.7,0.9-2.3c0.4-0.6,1-0.7,1.6-0.6
					c0.2,0.1,0.4,0.3,0.4,0.6c0,0.3,0,0.7-0.2,1c-0.1,0.4-0.4,0.7-0.7,0.9c-0.3,0.3-0.7,0.4-1.1,0.3c-0.1,0.5-0.2,1-0.2,1.5
					c0,0.5,0,0.9,0.1,1.3c0.1,0.4,0.2,0.7,0.4,1C103.1,21.1,103.3,21.2,103.7,21.2z M104.1,14.3c-0.3-0.1-0.5,0.1-0.8,0.5
					c-0.2,0.4-0.4,0.9-0.6,1.6c0,0.2-0.1,0.3-0.1,0.6c0.4,0.1,0.7,0,1-0.3c0.3-0.2,0.5-0.5,0.6-0.9c0.1-0.3,0.2-0.7,0.2-1
					C104.5,14.5,104.3,14.4,104.1,14.3z"/>
				<path class="st1" d="M111,22.8c-0.7,0.1-1.1-0.7-1.1-2.2c0-0.5,0-1.1,0.1-1.7c0.1-0.6,0.2-1.2,0.3-1.8c0.1-0.6,0.1-1.1,0.2-1.5
					c0-0.4,0-0.6-0.1-0.6c-0.1,0-0.2,0.1-0.4,0.3c-0.2,0.2-0.4,0.5-0.7,1c-0.3,0.4-0.6,1-0.9,1.6s-0.6,1.4-0.8,2.2
					c0,0.1-0.1,0.2-0.2,0.3c-0.1,0.1-0.2,0.1-0.3,0.1c-0.1,0-0.2,0-0.2-0.1c-0.1-0.1-0.1-0.2-0.1-0.3c0-0.3,0-0.6,0.1-0.8
					c0-0.2,0.1-0.5,0.1-0.7c0-0.2,0.1-0.5,0.1-0.8c0-0.3,0.1-0.6,0.2-1c0-0.3,0.1-0.5,0.2-0.6c0.1-0.1,0.2-0.2,0.3-0.2
					c0.1,0,0.2,0.1,0.3,0.2c0.1,0.1,0.1,0.3,0.1,0.4c-0.1,0.6-0.2,1-0.2,1.1c0,0.2-0.1,0.3-0.1,0.4c0,0.1,0,0.2-0.1,0.3
					c0,0.1-0.1,0.4-0.2,0.8c0-0.2,0.2-0.5,0.4-1.1c0.2-0.5,0.5-1,0.7-1.6c0.3-0.5,0.6-1,0.9-1.4s0.6-0.6,0.8-0.6
					c0.3,0,0.6,0.2,0.7,0.6c0.1,0.4,0.1,0.9,0.1,1.4c0,0.6-0.1,1.2-0.3,1.8c-0.1,0.6-0.2,1.3-0.3,1.8c-0.1,0.6-0.1,1.1-0.1,1.4
					c0,0.4,0.1,0.6,0.4,0.6c0.2,0,0.4-0.1,0.7-0.4c0.3-0.3,0.6-0.8,0.9-1.3c0.3-0.5,0.7-1.1,1-1.7c0.3-0.6,0.6-1.2,0.8-1.8
					c0-0.1,0.1-0.1,0.1-0.1c0,0,0.1,0,0.1,0.1c-0.3,0.6-0.6,1.2-0.9,1.8c-0.3,0.6-0.6,1.2-1,1.7c-0.3,0.5-0.6,1-0.9,1.3
					C111.5,22.6,111.2,22.7,111,22.8z"/>
				<path class="st1" d="M114.3,17.5c-0.5-0.3-0.8-0.7-0.9-1.2c-0.1-0.5-0.1-0.9,0.1-1.4s0.4-0.8,0.7-1c0.3-0.3,0.7-0.3,1-0.2
					c0.2,0.1,0.3,0.3,0.3,0.6c0,0.3,0,0.6-0.1,1c-0.1,0.4-0.2,0.7-0.4,1.1c-0.2,0.4-0.3,0.7-0.5,0.9c0.1,0.1,0.2,0.1,0.5,0.3
					s0.6,0.2,0.8,0.4c0.2,0.1,0.4,0.3,0.4,0.6c0,0.3,0,0.6-0.1,0.9c-0.1,0.3-0.2,0.7-0.3,1.1c-0.1,0.4-0.3,0.7-0.4,1
					c-0.1,0.3-0.2,0.5-0.2,0.7c0,0.2,0.1,0.3,0.2,0.3c0.2,0,0.4-0.1,0.7-0.4c0.3-0.3,0.6-0.7,1-1.2c0.4-0.5,0.7-1.1,1.1-1.7
					c0.4-0.6,0.7-1.3,1.1-2c0-0.1,0.1-0.1,0.1-0.1c0,0,0.1,0.1,0.1,0.1c-0.4,0.7-0.7,1.5-1.1,2.1c-0.4,0.7-0.8,1.3-1.1,1.8
					c-0.4,0.5-0.7,0.9-1,1.2c-0.3,0.3-0.6,0.4-0.8,0.4c-0.5,0-0.7-0.2-0.8-0.6c-0.1-0.4-0.1-0.8,0-1.3c0.1-0.5,0.2-1,0.4-1.5
					c0.2-0.5,0.4-1,0.5-1.3c-0.2-0.1-0.4-0.2-0.6-0.3C114.8,17.7,114.6,17.6,114.3,17.5z M115.1,13.9c-0.2-0.1-0.4,0-0.6,0.3
					c-0.2,0.3-0.4,0.6-0.5,0.9c-0.1,0.4-0.2,0.8-0.1,1.2c0,0.4,0.2,0.8,0.4,1c0.2-0.3,0.4-0.6,0.5-1c0.2-0.4,0.3-0.7,0.4-1.1
					c0.1-0.3,0.1-0.6,0.1-0.9C115.4,14.1,115.3,13.9,115.1,13.9z"/>
				<path class="st1" d="M120.1,22.5c-0.7,0-1.1-0.5-1.2-1.4c-0.1-0.9,0-2.2,0.4-3.7c0.2-0.5,0.4-0.8,0.7-0.8c0.2,0,0.3,0.3,0.2,0.8
					c-0.1,0.6-0.3,1.1-0.4,1.7c-0.1,0.6-0.2,1.1-0.3,1.6c-0.1,0.5,0,0.9,0,1.2c0.1,0.3,0.3,0.5,0.6,0.5c0.2,0,0.4-0.1,0.6-0.4
					c0.2-0.3,0.5-0.6,0.8-1.1c0.3-0.5,0.6-1,0.9-1.6c0.3-0.6,0.6-1.2,1-1.9c0-0.1,0.1-0.1,0.1-0.1c0,0,0.1,0.1,0.1,0.1
					c-0.4,0.7-0.7,1.4-1,2.1c-0.3,0.6-0.7,1.2-1,1.6c-0.3,0.5-0.6,0.8-0.8,1.1C120.5,22.4,120.3,22.5,120.1,22.5z M120.1,14.5
					c0.1-0.2,0.1-0.3,0.2-0.3c0.1-0.1,0.2-0.1,0.3-0.1c0.1,0,0.2,0.1,0.2,0.1c0.1,0.1,0.1,0.2,0,0.3c-0.1,0.2-0.1,0.3-0.2,0.4
					c-0.1,0.1-0.2,0.1-0.3,0.1c-0.1,0-0.2-0.1-0.2-0.2C120,14.8,120,14.6,120.1,14.5z"/>
				<path class="st1" d="M129,14.3c0.1-0.2,0.2-0.4,0.3-0.5c0.2-0.1,0.3-0.1,0.4-0.1c0.1,0,0.2,0.1,0.3,0.2c0.1,0.1,0.1,0.3,0,0.6
					c-0.3,0.9-0.6,2-1,3.3c-0.4,1.3-0.9,2.8-1.3,4.3c0.5,0,1-0.1,1.5-0.2c0.5-0.1,1-0.3,1.5-0.6c0.5-0.3,1.1-0.8,1.6-1.4
					c0.6-0.6,1.1-1.4,1.7-2.5c0-0.1,0.1-0.1,0.1-0.1c0,0,0.1,0.1,0,0.1c-0.5,1-1,1.8-1.6,2.4c-0.6,0.6-1.1,1.1-1.7,1.5
					c-0.6,0.4-1.1,0.6-1.7,0.7c-0.6,0.1-1.1,0.2-1.6,0.2c0,0,0,0.1,0,0.1c0,0,0,0,0,0.1c0.7,1.2,1.3,2.5,1.7,3.8
					c0.4,1.3,0.6,2.6,0.7,3.9c0.1,1.3,0.1,2.5-0.1,3.7c-0.2,1.2-0.4,2.2-0.7,3.1c-0.3,0.9-0.7,1.6-1.2,2.2c-0.4,0.5-0.9,0.8-1.4,0.8
					c-0.9,0-1.5-0.4-1.9-1.2c-0.4-0.8-0.6-1.9-0.6-3.2s0.1-2.9,0.4-4.6c0.3-1.7,0.6-3.4,1.1-5.2c0.4-1.8,0.9-3.5,1.4-5.1
					c0.5-1.7,1-3.1,1.4-4.4c-0.7,1.7-1.4,2.9-1.9,3.8c-0.5,0.8-0.9,1.3-1.3,1.4c-0.5,0.1-0.8,0.1-1.1-0.1c-0.3-0.2-0.5-0.5-0.7-0.9
					c-0.2-0.4-0.2-0.9-0.3-1.4c0-0.5,0-1,0.1-1.5c0.2-0.8,0.5-1.4,0.8-1.9c0.4-0.5,0.8-0.8,1.2-1.1c0.4-0.3,0.8-0.4,1.2-0.5
					c0.4-0.1,0.7-0.1,0.9,0c0.4,0,0.6,0.2,0.8,0.4c0.2,0.3,0.3,0.6,0.3,1L129,14.3z M127.4,14c-0.5,0-1,0.2-1.4,0.6
					c-0.4,0.4-0.8,0.8-1.1,1.4c-0.3,0.6-0.5,1.2-0.7,1.8c-0.2,0.6-0.2,1.2-0.2,1.8c0,0.5,0.1,1,0.3,1.3c0.2,0.3,0.5,0.5,0.8,0.4
					c0.2-0.1,0.4-0.3,0.7-0.6c0.3-0.3,0.5-0.8,0.8-1.3c0.3-0.5,0.6-1.1,0.9-1.8c0.3-0.7,0.6-1.3,0.9-2c0-0.4-0.1-0.7-0.3-1.1
					C128,14.2,127.7,14,127.4,14z M126.6,39.7c0.4,0,0.8-0.2,1.2-0.7c0.4-0.5,0.8-1.1,1.1-2c0.3-0.8,0.6-1.8,0.7-2.9
					c0.2-1.1,0.2-2.3,0.2-3.6c-0.1-1.3-0.3-2.6-0.6-3.9c-0.4-1.4-0.9-2.7-1.6-4c-0.4,1.3-0.7,2.6-1.1,3.9c-0.4,1.3-0.7,2.7-0.9,3.9
					c-0.3,1.3-0.5,2.5-0.6,3.6c-0.1,1.1-0.2,2.1-0.1,3c0.1,0.9,0.2,1.5,0.5,2C125.6,39.6,126,39.8,126.6,39.7z"/>
				<path class="st1" d="M138,21.4c-0.3,0-0.6-0.1-0.8-0.4c-0.2-0.3-0.3-0.7-0.4-1.1c-0.1-0.5-0.1-1,0-1.5c0.1-0.5,0.2-1,0.3-1.5
					c-0.2,0.4-0.4,0.8-0.5,1.2c-0.2,0.4-0.4,0.8-0.6,1.1c-0.2,0.3-0.4,0.6-0.6,0.8c-0.2,0.2-0.4,0.4-0.6,0.4c-0.4,0.1-0.7,0-0.9-0.3
					c-0.2-0.3-0.3-0.6-0.3-1.1c0-0.4,0-0.9,0.1-1.5c0.1-0.6,0.2-1.1,0.4-1.5c0.1-0.3,0.2-0.5,0.3-0.6c0.1-0.1,0.2-0.1,0.3-0.1
					c0.1,0,0.2,0.1,0.2,0.2s0.1,0.3,0,0.4c-0.2,0.6-0.3,1.2-0.4,1.7c-0.1,0.6-0.2,1-0.2,1.4c0,0.4,0,0.7,0,0.9
					c0.1,0.2,0.2,0.3,0.4,0.2c0.2-0.1,0.4-0.3,0.7-0.6c0.2-0.4,0.5-0.8,0.7-1.2c0.2-0.5,0.5-0.9,0.7-1.5c0.2-0.5,0.5-1,0.7-1.4
					c0.1-0.2,0.2-0.3,0.3-0.3s0.2-0.1,0.3-0.1c0.1,0,0.2,0.1,0.2,0.1c0,0.1,0.1,0.2,0,0.3c-0.2,0.5-0.3,1.1-0.5,1.7
					c-0.2,0.6-0.3,1.2-0.4,1.8c-0.1,0.6-0.1,1-0.1,1.4c0,0.4,0.2,0.7,0.5,0.8c0.2,0.1,0.3,0,0.6-0.2c0.2-0.2,0.5-0.5,0.8-0.8
					c0.3-0.4,0.6-0.8,0.8-1.3c0.3-0.5,0.5-1,0.8-1.5c0-0.1,0.1-0.1,0.1-0.1c0,0,0.1,0,0.1,0.1c-0.2,0.5-0.5,1-0.7,1.5
					c-0.3,0.5-0.5,0.9-0.8,1.3c-0.3,0.4-0.5,0.7-0.8,0.9C138.5,21.2,138.3,21.4,138,21.4z"/>
				<path class="st1" d="M142.9,21.2c0.6,0,1.2-0.4,1.7-1c0.6-0.6,1.2-1.6,1.9-2.9c0-0.1,0.1-0.1,0.1-0.1c0,0,0.1,0.1,0,0.1
					c-0.3,0.5-0.6,1-0.9,1.5c-0.3,0.5-0.6,0.9-0.9,1.3c-0.3,0.4-0.6,0.7-1,0.9c-0.3,0.2-0.7,0.3-1,0.3c-0.5,0-0.9-0.1-1.2-0.4
					s-0.5-0.6-0.6-1c-0.1-0.4-0.2-0.9-0.2-1.4c0-0.5,0-1.1,0.1-1.6c0.2-1,0.5-1.7,0.9-2.3c0.4-0.6,1-0.7,1.6-0.6
					c0.2,0.1,0.4,0.3,0.4,0.6c0,0.3,0,0.7-0.2,1c-0.1,0.4-0.4,0.7-0.7,0.9c-0.3,0.3-0.7,0.4-1.1,0.3c-0.1,0.5-0.2,1-0.2,1.5
					c0,0.5,0,0.9,0.1,1.3c0.1,0.4,0.2,0.7,0.4,1C142.3,21.1,142.6,21.2,142.9,21.2z M143.4,14.3c-0.3-0.1-0.5,0.1-0.8,0.5
					c-0.2,0.4-0.4,0.9-0.6,1.6c0,0.2-0.1,0.3-0.1,0.6c0.4,0.1,0.7,0,1-0.3c0.3-0.2,0.5-0.5,0.6-0.9c0.1-0.3,0.2-0.7,0.2-1
					C143.7,14.5,143.6,14.4,143.4,14.3z"/>
			</g>
		</g>
	</g>
</g>
</svg>
